<?xml version="1.0" encoding="iso-8859-1"?>
<!-- Generator: Adobe Illustrator 17.1.0, SVG Export Plug-In . SVG Version: 6.00 Build 0)  -->
<!DOCTYPE svg PUBLIC "-//W3C//DTD SVG 1.1//EN" "http://www.w3.org/Graphics/SVG/1.1/DTD/svg11.dtd">
<svg version="1.1" xmlns="http://www.w3.org/2000/svg" xmlns:xlink="http://www.w3.org/1999/xlink" x="0px" y="0px"
	 viewBox="0 0 64.378 59.581" style="enable-background:new 0 0 64.378 59.581;" xml:space="preserve">
<g id="Layer_1_1_">
	<g id="Layer_1_3_">
		<path id="speech-bubble-2-icon" style="fill:#E0DFD9;" d="M0.143,59.581c2.604-5.18,5.495-12.289,5.347-17.247
			C1.982,38.104,0,32.652,0,27.1C0,11.445,15.187,0,32.19,0c16.897,0,32.19,11.36,32.19,27.1c0,16.391-18.058,31.698-42.834,25.613
			C17.044,55.495,7.122,58.308,0.143,59.581z M32.189,6.269c-14.293,0-25.921,9.345-25.921,20.832c0,6.044,2.609,9.85,6.29,13.603
			c-0.748,5.573-2.545,10.417-2.545,10.417s5.313-1.406,11.349-4.932c23.096,6.124,36.747-7.203,36.747-19.089
			C58.109,15.614,46.481,6.269,32.189,6.269z"/>
	</g>
</g>
<g id="Layer_1">
</g>
</svg>
