<?xml version="1.0" encoding="iso-8859-1"?>
<!-- Generator: Adobe Illustrator 17.1.0, SVG Export Plug-In . SVG Version: 6.00 Build 0)  -->
<!DOCTYPE svg PUBLIC "-//W3C//DTD SVG 1.1//EN" "http://www.w3.org/Graphics/SVG/1.1/DTD/svg11.dtd">
<svg version="1.1" xmlns="http://www.w3.org/2000/svg" xmlns:xlink="http://www.w3.org/1999/xlink" x="0px" y="0px"
	 viewBox="0 0 146.448 167.49" style="enable-background:new 0 0 146.448 167.49;" xml:space="preserve">
<g id="Layer_1_1_">
	<path id="newspaper-4-icon" style="fill:#6E6F71;" d="M127.232,47.115c-14,0.735-31.561,5.3-42.604,9.544v-7.139
		c11.827-4.002,27.9-8.47,42.604-9.242V47.115z M127.232,52.837c-14.704,0.772-30.777,5.24-42.604,9.242v7.139
		c11.043-4.243,28.605-8.809,42.604-9.544V52.837z M127.232,22.978c-14.704,0.772-30.777,5.24-42.604,9.242v11.76
		c11.043-4.243,28.605-8.809,42.604-9.544V22.978z M146.448,0v102.845c-26.174,1.256-50.005,5.827-73.224,16.513
		C50.005,108.673,26.174,104.101,0,102.845V0c25.774,1.268,54.533,6.539,73.224,16.741C91.915,6.539,120.674,1.268,146.448,0z
		 M69.995,27.592c-15.285-9.145-40.452-13.72-59.332-15.988v81.244c21.616,1.762,42.307,6.298,59.332,12.866V27.592z
		 M135.784,11.604c-18.88,2.268-44.047,6.843-59.332,15.988v78.122c17.025-6.568,37.716-11.104,59.332-12.866V11.604z
		 M127.232,65.515c-14.704,0.772-30.777,5.24-42.604,9.242v7.139c11.043-4.243,28.605-8.809,42.604-9.544V65.515z M127.232,78.43
		c-14.704,0.772-30.777,5.24-42.604,9.242v7.139c11.043-4.243,28.605-8.809,42.604-9.544V78.43z M61.82,49.519
		c-11.827-4.002-27.9-8.47-42.604-9.242v6.838c14,0.735,31.561,5.3,42.604,9.544V49.519z M61.82,87.672
		c-11.827-4.002-27.9-8.47-42.604-9.242v6.838c14,0.735,31.561,5.3,42.604,9.544V87.672z M61.82,32.22
		c-11.827-4.002-27.9-8.47-42.604-9.242v11.458c14,0.735,31.561,5.3,42.604,9.544V32.22z M61.82,74.757
		c-11.827-4.002-27.9-8.47-42.604-9.242v6.838c14,0.735,31.561,5.3,42.604,9.544V74.757z M61.82,62.079
		c-11.827-4.002-27.9-8.47-42.604-9.242v6.838c14,0.735,31.561,5.3,42.604,9.544V62.079z"/>
</g>
<g id="Layer_1">
</g>
</svg>
