<?xml version="1.0" encoding="iso-8859-1"?>
<!-- Generator: Adobe Illustrator 17.1.0, SVG Export Plug-In . SVG Version: 6.00 Build 0)  -->
<!DOCTYPE svg PUBLIC "-//W3C//DTD SVG 1.1//EN" "http://www.w3.org/Graphics/SVG/1.1/DTD/svg11.dtd">
<svg version="1.1" xmlns="http://www.w3.org/2000/svg" xmlns:xlink="http://www.w3.org/1999/xlink" x="0px" y="0px"
	 viewBox="0 0 115.586 59.206" style="enable-background:new 0 0 115.586 59.206;" xml:space="preserve">
<g id="Layer_1_1_">
	<g id="Layer_1_3_">
		<path id="infinity-icon" style="fill:#6E6F71;" d="M88.783,0C74.8,0,65.655,11.332,57.467,19.908C49.279,11.332,40.786,0,26.803,0
			C10.839,0,0,12.727,0,29.603s10.839,29.603,26.802,29.603c14.166,0,23.253-11.053,31.374-19.391
			c8.121,8.339,16.441,19.391,30.607,19.391c15.964,0,26.802-12.727,26.802-29.603S104.748,0,88.783,0z M26.802,47.205
			c-9.503,0-15.202-7.171-15.202-17.602s5.698-17.602,15.202-17.602c9.857,0,15.809,8.866,23.727,18.352
			C43.278,38.935,36.969,47.205,26.802,47.205z M88.783,47.205c-10.166,0-16.418-9.186-23.669-17.768
			c7.917-9.486,13.812-17.435,23.669-17.435c9.503,0,15.202,7.171,15.202,17.602C103.985,40.034,98.287,47.205,88.783,47.205z"/>
	</g>
</g>
<g id="Layer_1">
</g>
</svg>
