<?xml version="1.0" encoding="iso-8859-1"?>
<!-- Generator: Adobe Illustrator 17.1.0, SVG Export Plug-In . SVG Version: 6.00 Build 0)  -->
<!DOCTYPE svg PUBLIC "-//W3C//DTD SVG 1.1//EN" "http://www.w3.org/Graphics/SVG/1.1/DTD/svg11.dtd">
<svg version="1.1" xmlns="http://www.w3.org/2000/svg" xmlns:xlink="http://www.w3.org/1999/xlink" x="0px" y="0px"
	 viewBox="0 0 98.703 139.75" style="enable-background:new 0 0 98.703 139.75;" xml:space="preserve">
<g id="Layer_1_1_">
	<g>
		<g>
			<rect x="20.508" y="55.724" style="fill:white;" width="57.687" height="84.026"/>
			<polygon style="fill:white;" points="20.508,139.75 10.254,97.737 0,55.724 20.508,55.724 41.016,55.724 30.762,97.737"/>
			<polygon style="fill:white;" points="78.195,139.75 67.941,97.737 57.687,55.724 78.195,55.724 98.703,55.724 88.449,97.737"/>
		</g>
		<path style="fill:white;" d="M25.334,50.959V37.873c0-13.243,10.774-24.017,24.017-24.017S73.369,24.63,73.369,37.873v13.086
			h13.856V37.873C87.225,16.957,70.268,0,49.351,0S11.478,16.957,11.478,37.873v13.086L25.334,50.959L25.334,50.959z"/>
	</g>
</g>
<g id="Layer_1">
</g>
</svg>
