<?xml version="1.0" encoding="iso-8859-1"?>
<!-- Generator: Adobe Illustrator 17.1.0, SVG Export Plug-In . SVG Version: 6.00 Build 0)  -->
<!DOCTYPE svg PUBLIC "-//W3C//DTD SVG 1.1//EN" "http://www.w3.org/Graphics/SVG/1.1/DTD/svg11.dtd">
<svg version="1.1" xmlns="http://www.w3.org/2000/svg" xmlns:xlink="http://www.w3.org/1999/xlink" x="0px" y="0px"
	 viewBox="0 0 130.266 117.084" style="enable-background:new 0 0 130.266 117.084;" xml:space="preserve">
<g id="Layer_1_1_">
	<g id="Layer_1_3_">
		<g>
			<path style="fill:white;" d="M122.339,0H7.932C3.566,0,0,3.572,0,7.927v82.258c0,4.349,3.566,7.927,7.932,7.927h114.407
				c4.36,0,7.927-3.578,7.927-7.927V7.927C130.266,3.572,126.699,0,122.339,0z M120.343,84.354H9.922V11.118h110.421
				C120.343,11.118,120.343,84.354,120.343,84.354z"/>
			<polygon style="fill:white;" points="50.456,101.874 35.486,117.084 94.998,117.084 80.028,101.874 			"/>
			<path style="fill:white;" d="M26.782,69.669c2.924,0,5.305-2.376,5.305-5.299c0-0.531-0.157-1.012-0.302-1.498
				c6.781-5.467,18.76-15.104,24.222-19.314c0.861,0.609,1.861,1.045,2.996,1.045c0.945,0,1.783-0.313,2.549-0.743
				c3.511,2.985,9.481,8.061,13.718,11.667c-0.056,0.307-0.179,0.581-0.179,0.906c0,2.929,2.381,5.305,5.311,5.305
				c2.929,0,5.311-2.376,5.311-5.305c0-0.52-0.157-0.995-0.296-1.47l13.718-12.388c0.738,0.386,1.532,0.66,2.426,0.66
				c2.929,0,5.305-2.376,5.305-5.305s-2.376-5.305-5.305-5.305s-5.299,2.376-5.299,5.311c0,0.699,0.151,1.364,0.397,1.973
				c-3.835,3.46-9.749,8.804-13.439,12.136c-0.822-0.531-1.75-0.922-2.812-0.922c-1.252,0-2.348,0.497-3.253,1.219
				c-3.505-2.979-9.173-7.798-13.204-11.225c0.212-0.57,0.363-1.168,0.363-1.817c0-2.929-2.376-5.305-5.305-5.305
				s-5.305,2.376-5.305,5.305c0,0.648,0.157,1.252,0.369,1.822l-24.35,18.945c-0.85-0.581-1.828-1.006-2.935-1.006
				c-2.929,0-5.305,2.376-5.305,5.305C21.477,67.293,23.853,69.669,26.782,69.669z"/>
		</g>
	</g>
</g>
<g id="Layer_1">
</g>
</svg>
