<?xml version="1.0" encoding="iso-8859-1"?>
<!-- Generator: Adobe Illustrator 17.1.0, SVG Export Plug-In . SVG Version: 6.00 Build 0)  -->
<!DOCTYPE svg PUBLIC "-//W3C//DTD SVG 1.1//EN" "http://www.w3.org/Graphics/SVG/1.1/DTD/svg11.dtd">
<svg version="1.1" xmlns="http://www.w3.org/2000/svg" xmlns:xlink="http://www.w3.org/1999/xlink" x="0px" y="0px"
	 viewBox="0 0 23.945 27.981" style="enable-background:new 0 0 23.945 27.981;" xml:space="preserve">
<g id="Layer_1_1_">
	<path id="speech-bubble-2-icon" style="fill:#1F9ABF;" d="M0.053,27.981c0.969-2.432,2.044-5.771,1.989-8.1
		C0.737,17.895,0,15.335,0,12.727C0,5.375,5.649,0,11.972,0c6.285,0,11.972,5.335,11.972,12.727c0,7.698-6.716,14.886-15.931,12.029
		C6.34,26.062,2.649,27.383,0.053,27.981z M11.972,2.944c-5.316,0-9.641,4.389-9.641,9.783c0,2.839,0.97,4.626,2.34,6.388
		c-0.278,2.617-0.947,4.892-0.947,4.892s1.976-0.66,4.221-2.316c8.59,2.876,13.668-3.383,13.668-8.964
		C21.613,7.333,17.288,2.944,11.972,2.944z"/>
</g>
<g id="Layer_1">
</g>
</svg>
