<?xml version="1.0" encoding="iso-8859-1"?>
<!-- Generator: Adobe Illustrator 17.1.0, SVG Export Plug-In . SVG Version: 6.00 Build 0)  -->
<!DOCTYPE svg PUBLIC "-//W3C//DTD SVG 1.1//EN" "http://www.w3.org/Graphics/SVG/1.1/DTD/svg11.dtd">
<svg version="1.1" xmlns="http://www.w3.org/2000/svg" xmlns:xlink="http://www.w3.org/1999/xlink" x="0px" y="0px"
	 viewBox="0 0 67.65 143.407" style="enable-background:new 0 0 67.65 143.407;" xml:space="preserve">
<g id="Layer_1_1_">
	<g id="Layer_1_3_">
		<g>
			<path style="fill:white;" d="M51.246,80.679l-4.334-1.646l-2.086,61.518c0,1.384,7.237,2.857,10.637,2.857h1.516
				c3.402,0,10.639-1.473,10.639-2.857l-2.227-65.65L51.246,80.679z M56.441,134.107c-1.888,0-3.419-1.533-3.419-3.419
				c0-1.888,1.53-3.419,3.419-3.419s3.419,1.53,3.419,3.419C59.86,132.574,58.329,134.107,56.441,134.107z M56.441,96.224
				c-1.888,0-3.419-1.53-3.419-3.421c0-1.886,1.53-3.417,3.419-3.417s3.419,1.53,3.419,3.417
				C59.86,94.696,58.329,96.224,56.441,96.224z"/>
			<path style="fill:white;" d="M28.967,30.033c0-19.274-1.144-24.966-5.608-26.638l-0.526,24.896
				c0,1.197-0.882,2.191-1.965,2.191h-0.694c-1.084,0-1.965-0.995-1.965-2.218L16.181,2.7c-0.545,0-1.105,0.002-1.696,0.002
				c-1.024,0-1.968,0.007-2.852,0.029L9.608,28.358c0.002,1.127-0.877,2.122-1.961,2.122H6.951c-1.084,0-1.965-0.995-1.965-2.218
				L4.469,3.993C0.007,6.391,0,13.207,0,32.474c0,5.247,0.942,9.406,3.167,12.278c0.711,1.562,1.557,3.409,2.453,5.344
				c1.382,2.989,2.871,6.163,4.173,8.844l-2.047,78.651c0,1.852,3.945,3.417,5.8,3.417H16.6c1.855,0,5.8-1.725,5.8-3.58
				l-2.076-79.543l4.75-12.405l0.805-2.105C28.044,39.91,28.967,35.215,28.967,30.033z"/>
			<path style="fill:white;" d="M51.213,78.096l16.437-6.715L60.899,0c-8.885,7.713-12.986,16.665-13.568,18.001L43.71,75.247
				L51.213,78.096z"/>
		</g>
	</g>
</g>
<g id="Layer_1">
</g>
</svg>
