<?xml version="1.0" encoding="utf-8"?>
<!-- Generator: Adobe Illustrator 16.0.0, SVG Export Plug-In . SVG Version: 6.00 Build 0)  -->
<!DOCTYPE svg PUBLIC "-//W3C//DTD SVG 1.1//EN" "http://www.w3.org/Graphics/SVG/1.1/DTD/svg11.dtd">
<svg version="1.1" id="Layer_10" xmlns="http://www.w3.org/2000/svg" xmlns:xlink="http://www.w3.org/1999/xlink" x="0px" y="0px"
	 viewBox="0 0 100 100" enable-background="new 0 0 100 100" xml:space="preserve" fill="white">
<path d="M90.01,10.087c-2.642-2.642-11.608,2.041-14.25,4.683L65.181,25.35H17.057c-1.144,0-2.127,0.813-2.341,1.937
	s0.401,2.241,1.465,2.661l31.824,12.577L28.49,62.039H10.033c-0.396,0.001-0.737,0.282-0.811,0.672s0.139,0.777,0.508,0.923
	l15.531,6.138c0.09,0.39,0.215,0.772,0.375,1.145l-0.679,0.68c-0.968,0.968-0.968,2.536,0,3.504c0.967,0.968,2.537,0.968,3.504,0
	l0.663-0.663c0.376,0.166,0.763,0.297,1.158,0.391l5.987,15.343c0.144,0.37,0.532,0.584,0.922,0.511
	c0.168-0.03,0.317-0.113,0.431-0.228c0.151-0.15,0.242-0.357,0.242-0.584V71.803l19.824-19.824l12.458,31.929
	c0.417,1.066,1.534,1.687,2.66,1.476c0.486-0.092,0.914-0.328,1.244-0.656c0.435-0.436,0.698-1.035,0.699-1.687V34.918l10.58-10.58
	C87.97,21.696,92.652,12.729,90.01,10.087z"/>
</svg>
