<?xml version="1.0" encoding="iso-8859-1"?>
<!-- Generator: Adobe Illustrator 17.1.0, SVG Export Plug-In . SVG Version: 6.00 Build 0)  -->
<!DOCTYPE svg PUBLIC "-//W3C//DTD SVG 1.1//EN" "http://www.w3.org/Graphics/SVG/1.1/DTD/svg11.dtd">
<svg version="1.1" xmlns="http://www.w3.org/2000/svg" xmlns:xlink="http://www.w3.org/1999/xlink" x="0px" y="0px"
	 viewBox="0 0 64.86 64.86" style="enable-background:new 0 0 64.86 64.86;" xml:space="preserve">
<g id="Layer_1_1_">
	<g id="Layer_1_3_">
		<g>
			<path id="smiley-excited-icon_2_" style="fill:#6D6E70;" d="M32.43,0C14.519,0,0,14.519,0,32.43s14.519,32.43,32.43,32.43
				c17.911,0,32.43-14.519,32.43-32.43S50.341,0,32.43,0z M32.43,58.563c-14.442,0-26.133-11.688-26.133-26.133
				c0-14.442,11.688-26.133,26.133-26.133c14.442,0,26.133,11.688,26.133,26.133C58.563,46.873,46.875,58.563,32.43,58.563z"/>
			<g>
				
					<rect x="33.767" y="14.656" transform="matrix(-0.7071 -0.7071 0.7071 -0.7071 41.1165 83.699)" style="fill:#6D6E70;" width="8.252" height="37.357"/>
				
					<rect x="17.69" y="27.083" transform="matrix(-0.7071 0.7071 -0.7071 -0.7071 64.455 50.2732)" style="fill:#6D6E70;" width="8.252" height="22.805"/>
			</g>
		</g>
	</g>
</g>
<g id="Layer_1">
</g>
</svg>
