<?xml version="1.0" encoding="iso-8859-1"?>
<!-- Generator: Adobe Illustrator 17.1.0, SVG Export Plug-In . SVG Version: 6.00 Build 0)  -->
<!DOCTYPE svg PUBLIC "-//W3C//DTD SVG 1.1//EN" "http://www.w3.org/Graphics/SVG/1.1/DTD/svg11.dtd">
<svg version="1.1" xmlns="http://www.w3.org/2000/svg" xmlns:xlink="http://www.w3.org/1999/xlink" x="0px" y="0px"
	 viewBox="0 0 22.95 18.705" style="enable-background:new 0 0 22.95 18.705;" xml:space="preserve">
<g id="Layer_1_1_">
	<g id="Layer_1_3_">
		<path id="newspaper-4-icon" style="fill:#6E6F71;" d="M19.939,7.384c-2.194,0.115-4.946,0.831-6.677,1.496V7.76
			c1.853-0.627,4.372-1.327,6.677-1.448C19.939,6.312,19.939,7.384,19.939,7.384z M19.939,8.28
			c-2.304,0.121-4.823,0.821-6.677,1.448v1.119c1.731-0.665,4.483-1.38,6.677-1.496C19.939,9.352,19.939,8.28,19.939,8.28z
			 M19.939,3.601c-2.304,0.121-4.823,0.821-6.677,1.448v1.843c1.731-0.665,4.483-1.38,6.677-1.496
			C19.939,5.397,19.939,3.601,19.939,3.601z M22.95,0v16.117c-4.102,0.197-7.836,0.913-11.475,2.588
			C7.836,17.031,4.102,16.314,0,16.117V0c4.039,0.199,8.546,1.025,11.475,2.624C14.404,1.025,18.911,0.199,22.95,0z M10.969,4.324
			C8.574,2.891,4.63,2.174,1.671,1.819v12.732c3.388,0.276,6.63,0.987,9.298,2.016V4.324z M21.279,1.819
			c-2.959,0.355-6.903,1.072-9.298,2.506v12.243c2.668-1.029,5.911-1.74,9.298-2.016V1.819z M19.939,10.267
			c-2.304,0.121-4.823,0.821-6.677,1.448v1.119c1.731-0.665,4.483-1.38,6.677-1.496C19.939,11.339,19.939,10.267,19.939,10.267z
			 M19.939,12.291c-2.304,0.121-4.823,0.821-6.677,1.448v1.119c1.731-0.665,4.483-1.38,6.677-1.496
			C19.939,13.363,19.939,12.291,19.939,12.291z M9.688,7.76C7.835,7.133,5.316,6.433,3.011,6.312v1.072
			c2.194,0.115,4.946,0.831,6.677,1.496V7.76z M9.688,13.739c-1.853-0.627-4.372-1.327-6.677-1.448v1.072
			c2.194,0.115,4.946,0.831,6.677,1.496V13.739z M9.688,5.049C7.835,4.422,5.316,3.722,3.011,3.601v1.796
			c2.194,0.115,4.946,0.831,6.677,1.496V5.049z M9.688,11.715c-1.853-0.627-4.372-1.327-6.677-1.448v1.072
			c2.194,0.115,4.946,0.831,6.677,1.496V11.715z M9.688,9.729C7.835,9.101,5.316,8.401,3.011,8.28v1.072
			c2.194,0.115,4.946,0.831,6.677,1.496V9.729z"/>
	</g>
</g>
<g id="Layer_1">
</g>
</svg>
