<?xml version="1.0" encoding="iso-8859-1"?>
<!-- Generator: Adobe Illustrator 17.1.0, SVG Export Plug-In . SVG Version: 6.00 Build 0)  -->
<!DOCTYPE svg PUBLIC "-//W3C//DTD SVG 1.1//EN" "http://www.w3.org/Graphics/SVG/1.1/DTD/svg11.dtd">
<svg version="1.1" xmlns="http://www.w3.org/2000/svg" xmlns:xlink="http://www.w3.org/1999/xlink" x="0px" y="0px"
	 viewBox="0 0 172.72 118.551" style="enable-background:new 0 0 172.72 118.551;" xml:space="preserve">
<g id="Layer_1_1_">
	<g id="Layer_1_3_">
		<path style="fill:#6D6E70;" d="M168.936,107.577h-6.217v-6.334h-3.577V58.428h3.577v-4.64h3.171v-3.586h-3.171v-4.631h-21.624
			v-7.397h1.162v-3.361h-8.532v-2.865h2.063V27.11h-4.045v-4.973h-6.271c-6.604-12.335-20.876-21.02-37.661-21.948V0
			c-0.487,0-0.955,0.09-1.451,0.099C85.882,0.09,85.405,0,84.927,0v0.189C68.16,1.117,53.906,9.803,47.266,22.137h-6.253v4.973
			H36.95v4.838h2.072v2.865H30.48v3.361h1.171v7.397H10.028v4.631H6.884v3.586h3.144v4.64h3.586v42.815h-3.595v6.334H3.82L0,118.551
			h172.72L168.936,107.577z M24.993,101.243h-5.046V58.428h5.055L24.993,101.243L24.993,101.243z M37.436,101.243h-6.1V58.428h6.109
			L37.436,101.243L37.436,101.243z M54.186,101.243h-9.713V58.221h9.713V101.243z M70.935,101.243h-9.722V58.221h9.722V101.243z
			 M94.793,101.243H77.945V58.221h16.849L94.793,101.243L94.793,101.243z M111.525,101.243h-9.713V58.221h9.713V101.243z
			 M128.256,101.243h-9.731V58.221h9.731V101.243z M141.401,101.243h-6.127V58.428h6.127V101.243z M152.799,101.243h-5.073V58.428
			h5.073V101.243z"/>
	</g>
</g>
<g id="Layer_1">
</g>
</svg>
