<?xml version="1.0" encoding="utf-8"?>

<!-- License Agreement at http://iconmonstr.com/license/ -->

<!DOCTYPE svg PUBLIC "-//W3C//DTD SVG 1.1//EN" "http://www.w3.org/Graphics/SVG/1.1/DTD/svg11.dtd">
<svg version="1.1" xmlns="http://www.w3.org/2000/svg" xmlns:xlink="http://www.w3.org/1999/xlink" x="0px" y="0px"
	 viewBox="0 0 512 512" style="enable-background:new 0 0 512 512;" xml:space="preserve" fill="white">
<path id="flask-9-icon" d="M462,294.721c0,21.777-17.654,39.432-39.433,39.432c-47.773,0-64.819-73.608,14.562-133.967
	C436.192,237.959,462,259.354,462,294.721z M424.126,239.373c-5.511,3.02-13.662,11.151-14.896,21.278
	c-1.847,15.186,13.833,19.671,15.243-0.692C425.066,251.378,424.474,247.266,424.126,239.373z M281.501,287.083
	c-0.901,2.569-1.782,5.082-2.647,7.55H111.938l-16.778-16.777c-4.739-4.741-2.883-12.815,3.425-15.021
	c14.417-5.045,46.079-16.167,117.472-41.199c69.77-24.463,105.533-65.543,125.725-85.734l-25.551-25.551l-17.203,17.202
	c-26.787,26.787-59.26,47.206-95.012,59.739L75.533,232.34c-26.499,9.291-34.215,43.139-14.358,62.997L207.8,441.961
	c19.858,19.858,53.706,12.142,62.997-14.358l45.046-128.48c12.535-35.751,32.954-68.224,59.741-95.011l17.201-17.203l-25.588-25.59
	C348.967,179.547,306.455,215.903,281.501,287.083z M438.945,143l-78.81-78.808c-7.104-7.105-18.627-7.105-25.732,0
	c-7.106,7.105-7.106,18.627,0,25.734l78.808,78.807c7.104,7.106,18.627,7.106,25.734,0C446.052,161.627,446.052,150.105,438.945,143
	z"/>
</svg>
