<?xml version="1.0" encoding="iso-8859-1"?>
<!-- Generator: Adobe Illustrator 17.1.0, SVG Export Plug-In . SVG Version: 6.00 Build 0)  -->
<!DOCTYPE svg PUBLIC "-//W3C//DTD SVG 1.1//EN" "http://www.w3.org/Graphics/SVG/1.1/DTD/svg11.dtd">
<svg version="1.1" xmlns="http://www.w3.org/2000/svg" xmlns:xlink="http://www.w3.org/1999/xlink" x="0px" y="0px"
	 viewBox="0 0 326.311 352.214" style="enable-background:new 0 0 326.311 352.214;" xml:space="preserve">
<g id="Layer_1_1_">
	<path id="wrench-icon" style="fill:white;" d="M314.499,283.366L183.272,152.14c-8.992-8.992-13.623-21.497-12.642-34.175
		c1.857-24.018-6.395-48.67-24.765-67.039C121.954,27.015,87.4,20.244,57.454,30.599l54.369,54.369
		c1.248,21.211-31.548,54.006-52.758,52.758L4.696,83.357c-10.356,29.946-3.584,64.501,20.327,88.412
		c18.369,18.37,43.021,26.621,67.04,24.765c12.691-0.981,25.174,3.642,34.175,12.642l131.227,131.226
		c15.749,15.75,41.285,15.75,57.035,0C330.248,324.652,330.248,299.116,314.499,283.366z M284.014,326.045
		c-9.179,0-16.62-7.442-16.62-16.622c0-9.179,7.442-16.62,16.62-16.62c9.179,0,16.622,7.442,16.622,16.62
		C300.636,318.604,293.194,326.045,284.014,326.045z"/>
</g>
<g id="Layer_1">
</g>
</svg>
