<?xml version="1.0" encoding="iso-8859-1"?>
<!-- Generator: Adobe Illustrator 17.1.0, SVG Export Plug-In . SVG Version: 6.00 Build 0)  -->
<!DOCTYPE svg PUBLIC "-//W3C//DTD SVG 1.1//EN" "http://www.w3.org/Graphics/SVG/1.1/DTD/svg11.dtd">
<svg version="1.1" xmlns="http://www.w3.org/2000/svg" xmlns:xlink="http://www.w3.org/1999/xlink" x="0px" y="0px"
	 viewBox="0 0 132.371 116.03" style="enable-background:new 0 0 132.371 116.03;" xml:space="preserve">
<g id="Layer_1_1_">
	<g id="Layer_1_3_">
		<g>
			<g>
				<path style="fill:white;" d="M20.399,78.401l2.877,2.464c0.51-0.586,1.04-1.169,1.568-1.75l-2.903-2.491l1.708-1.996
					l2.977,2.551c0.464-0.486,0.918-0.978,1.391-1.468l-2.894-2.477l1.708-1.996l3.036,2.613c0.606-0.605,1.222-1.195,1.837-1.785
					l-3.003-2.58l1.71-1.992l3.218,2.764c0.55-0.499,1.1-0.996,1.659-1.49l-3.336-2.859l1.708-2.001l3.655,3.15
					c6.394-5.323,13.45-9.89,21.007-12.767c-2.442-1.007-6.328-1.608-10.941-1.608c-10.908,0-25.806,3.336-34.925,12.463
					C-0.774,78.39-1.83,103.792,1.807,111.524c0,0,7.408-14.093,19.749-28.665l-2.868-2.464L20.399,78.401z"/>
				<path style="fill:white;" d="M61.051,56.403c-0.009,0.004-9.014,3.449-20.84,13.131l1.75,1.499l-1.708,1.992l-2.08-1.781
					c-0.559,0.468-1.118,0.963-1.686,1.464l2.218,1.901l-1.703,2.001l-2.469-2.123c-0.619,0.572-1.24,1.153-1.863,1.759l2.455,2.109
					l-1.708,1.987l-2.617-2.24c-0.472,0.477-0.94,0.963-1.413,1.455l2.56,2.191l-1.71,1.992l-2.646-2.265
					c-0.523,0.563-1.054,1.144-1.581,1.737l2.686,2.305l-1.708,1.992l-2.69-2.309c-6.599,7.754-13.261,17.362-19.195,29.238
					c2.444,0.978,6.246,1.559,10.773,1.559c10.913,0,25.82-3.336,34.938-12.463C64.524,89.815,65.165,63.039,61.051,56.403z"/>
			</g>
			<path style="fill:white;" d="M63.13,0C45.07,0,30.376,15.581,30.376,34.731c0,2.221,0.206,4.394,0.583,6.501l-0.123,0.156
				c0.059,0.053,0.116,0.097,0.175,0.149C34.003,57.44,47.265,69.462,63.13,69.462c18.06,0,32.754-15.581,32.754-34.731
				C95.884,15.581,81.19,0,63.13,0z M91.026,22.534c-0.043,11.267-9.52,13.67-13.504,14.18c3.32-12.142,2.374-23.796,1.648-29.07
				C84.441,11.167,88.618,16.365,91.026,22.534z M76.296,5.942c0.55,3.012,2.625,16.579-1.41,30.629
				c-7.679-2.159-8.767-8.087-10.22-16.157c-0.984-5.467-2.097-11.593-5.634-17.38c1.342-0.194,2.708-0.303,4.098-0.303
				C67.847,2.73,72.315,3.886,76.296,5.942z M56.268,3.575c3.748,5.615,4.876,11.836,5.869,17.351
				c1.443,8.013,2.816,15.6,11.931,18.248c-0.672,1.964-1.472,3.925-2.421,5.856c-18.904-9.71-30.503-25.309-33.024-28.937
				C42.82,9.901,49.049,5.361,56.268,3.575z M37.124,18.52c3.531,4.896,15.099,19.507,33.263,28.89
				c-0.71,1.256-1.493,2.491-2.347,3.702c-4.973-2.618-9.643-3.024-14.169-3.415c-6.262-0.542-12.733-1.12-20.498-7.649
				c-0.274-1.731-0.424-3.504-0.424-5.316C32.95,28.818,34.476,23.279,37.124,18.52z M34.287,44.154
				c7.248,5.204,13.401,5.746,19.376,6.263c4.303,0.372,8.393,0.733,12.726,2.885c-3.491,4.332-8.049,8.242-13.964,11.342
				C43.785,61.158,37.031,53.582,34.287,44.154z M55.894,65.797c5.372-3.181,9.578-7.026,12.862-11.221
				c1.379,0.809,4.083,2.696,4.787,5.414c0.418,1.611,0.039,3.352-1.104,5.179c-2.934,1.011-6.062,1.565-9.31,1.565
				C60.636,66.733,58.213,66.405,55.894,65.797z M75.938,63.699c0.426-1.503,0.465-2.99,0.085-4.447
				c-0.9-3.448-3.87-5.742-5.664-6.852c0.865-1.253,1.655-2.528,2.376-3.824c4.506,2.145,9.391,3.941,14.634,5.195
				C84.405,58.005,80.479,61.433,75.938,63.699z M88.918,51.338c-5.363-1.198-10.346-2.992-14.931-5.155
				c1.069-2.192,1.954-4.42,2.687-6.645c2.261-0.174,8.593-1.07,12.877-5.7c1.438-1.555,2.489-3.379,3.163-5.44
				c0.39,2.048,0.596,4.166,0.596,6.335C93.309,40.808,91.703,46.494,88.918,51.338z"/>
			<path style="fill:white;" d="M97.182,45.652c-19.402,0-35.189,15.787-35.189,35.189S77.78,116.03,97.182,116.03
				s35.189-15.787,35.189-35.189S116.583,45.652,97.182,45.652z M127.971,80.842c0,13.669-8.958,25.268-21.306,29.277l-2.886-2.885
				H90.584l-2.888,2.885c-12.348-4.009-21.304-15.608-21.304-29.277c0-1.787,0.184-3.526,0.479-5.228l6.118-1.371l4.4-8.797
				l-2.082-6.241c5.585-5.646,13.326-9.154,21.874-9.154s16.291,3.508,21.874,9.154l-2.08,6.241l4.4,8.797l6.118,1.371
				C127.787,77.316,127.971,79.055,127.971,80.842z M90.584,72.044l-4.4-10.997l10.997-6.577l10.997,6.579l-4.4,10.997H90.584
				V72.044z M119.176,83.042l2.2,10.997l-10.997,6.597l-8.797-8.797l6.597-10.997L119.176,83.042z M86.184,80.842l6.597,10.997
				l-8.797,8.797l-10.997-6.597l2.2-10.997L86.184,80.842z"/>
		</g>
	</g>
</g>
<g id="Layer_1">
</g>
</svg>
