<?xml version="1.0" encoding="utf-8"?>
<!-- Generator: Adobe Illustrator 16.0.4, SVG Export Plug-In . SVG Version: 6.00 Build 0)  -->
<!DOCTYPE svg PUBLIC "-//W3C//DTD SVG 1.1//EN" "http://www.w3.org/Graphics/SVG/1.1/DTD/svg11.dtd">
<svg version="1.1" xmlns="http://www.w3.org/2000/svg" xmlns:xlink="http://www.w3.org/1999/xlink" x="0px" y="0px"
	 viewBox="0 0 800 700" enable-background="new 0 0 800 700" xml:space="preserve">
<path fill="white" d="M799.854,210.233c-0.08-0.108-0.206-0.206-0.319-0.311c-6.39-6.022-50.159-2.275-50.159-2.275
	s-0.271,0.932-0.969,2.275c-1.485,2.859-4.935,7.608-11.979,9.373c-10.354,2.586-157.908,5.172-161.791-5.181
	c-0.654-1.75-1.819-3.104-3.258-4.192c-7.064-5.335-21.334-3.572-21.334-3.572s-1.107,1.468-2.892,3.572
	c-4.027,4.749-11.538,12.752-17.817,14.545c-7.013,2.005-8.585-6.84-7.745-14.545c0.245-2.247,0.688-4.405,1.271-6.16
	c1.812-5.439-15.427-24.205-29.918-33.632c-6.192-4.025-11.892-6.361-15.381-5.198c-11.648,3.883-72.488-19.414-72.488-19.414
	H192.871H28.42c0,0-0.792,8.261-2.147,15.461c-0.127,0.667-0.257,1.32-0.393,1.963c-0.638,3.021-1.376,5.687-2.207,7.188
	c-0.54,0.981-1.117,1.474-1.722,1.27c-0.556-0.184-1.367-0.653-2.327-1.27c-5.751-3.691-17.458-13.335-19.68-7.79
	c-0.709,1.771-0.035,4.533,1.279,7.79c3.495,8.65,11.664,20.935,11.664,28.452c0,1.654,0,5.685,0,11.34c0,6.453,0,15.019,0,24.615
	c0,12.354,0,26.394,0,39.79c0,8.698,0,17.113,0,24.615c0,13.418,0,23.909,0,27.781c0,5.052,3.265,8.64,7.358,12.009
	c7.435,6.127,17.61,11.546,15.939,23.768c-0.039,0.283-0.045,0.564-0.069,0.847c-1.217,14.422,16.472,29.533,28.742,39.791
	c3.649,3.049,6.822,5.675,8.865,7.717c3.774,3.777,9.119,10.468,14.632,16.896c7.727,9.014,15.784,17.513,20.315,16.761
	c7.766-1.294,22.005-6.474,31.065,3.883c7.56,8.642,42.152,17.273,59.413,19.146h9.94c9.832-1.315,35.456-4.867,50.457,0
	c5.52,1.794,9.604,4.72,10.919,9.326c1.528,5.347,4.308,10.568,7.449,15.29c7.509,11.28,17.142,19.658,17.142,19.658
	s6.475-10.354,10.356-18.122c0.297-0.594,0.687-1.103,1.138-1.536c2.18-2.103,6.041-2.312,10.43,0
	c6.631,3.495,14.46,12.759,19.498,30.016c1.012,3.476,2.395,6.722,4.025,9.773c5.7,10.673,14.598,18.828,22.798,24.613
	c10.465,7.382,19.773,10.912,19.773,10.912s0-4.546,0.083-10.912c0.093-7.192,0.291-16.697,0.714-24.613
	c0.139-2.613,0.302-5.062,0.495-7.187c1.294-14.235,44.009-27.182,51.774-28.479c7.767-1.293,59.541,22.008,59.541,14.243
	c0-6.521,8.225-12.137,17.755-18.367c1.82-1.188,3.68-2.396,5.547-3.64c4.116-2.748,9.204-0.309,14.114,3.64
	c8.995,7.219,17.404,19.501,18.24,14.485c1.293-7.771,25.89-3.882,28.476,5.173c1.524,5.344,3.497,12.939,4.598,20.131
	c0.767,4.999,1.109,9.812,0.583,13.526c-0.363,2.545,1.316,6.627,4.007,11.087c6.887,11.42,20.383,25.354,23.176,22.562
	c1.706-1.704,3.664-11.433,4.442-22.562c0.583-8.347,0.49-17.476-0.86-24.613c-0.945-4.974-2.496-8.982-4.878-11.067
	c-4.604-4.03-8.18-15.993-9.829-28.722c-1.109-8.6-1.342-17.528-0.408-24.618c0.792-6.014,2.42-10.694,5.061-12.675
	c4.068-3.049,18.512-14.28,33.693-27.112c9.607-8.121,19.513-16.881,27.268-24.613c11.199-11.165,17.926-20.193,12.814-22.051
	c-8.366-3.045-9.562-8.799-8.615-17.74c0.664-6.264,2.371-14.078,3.436-23.677c0.039-0.334,0.086-0.623,0.129-0.938
	c2.915-21.554,18.086,4.392,24.473-24.954c1.341-6.175,4.818-11,9.393-14.836c17.461-14.656,51.124-14.71,44.966-18.813
	c-1.896-1.271-3.253-3.322-4.067-5.802c-2.513-7.642,0.136-19.402,7.949-25.264c4.006-3.001,12.068-8.515,20.149-14.526
	C790.126,224.994,803.032,214.203,799.854,210.233z"/>
</svg>
