<?xml version="1.0" encoding="utf-8"?>

<!-- License Agreement at http://iconmonstr.com/license/ -->

<!DOCTYPE svg PUBLIC "-//W3C//DTD SVG 1.1//EN" "http://www.w3.org/Graphics/SVG/1.1/DTD/svg11.dtd">
<svg version="1.1" xmlns="http://www.w3.org/2000/svg" xmlns:xlink="http://www.w3.org/1999/xlink" x="0px" y="0px" fill="white"
	 viewBox="0 0 512 512" enable-background="new 0 0 512 512" xml:space="preserve">
<path id="magic-7-icon" d="M381.151,273.84c0,71.312-250.303,71.283-250.303,0c0-15.437,13.202-27.329,33.535-35.679
	c1.284,8.278,5.223,16.97,10.653,24.079c-14.345,8.019-11.112,19.979,9.756,27.191c39.761,13.738,102.559,13.515,142.413,0
	c21.187-7.185,25.078-18.933,10.363-27.028c5.441-6.87,9.573-15.757,10.917-23.899C368.328,246.834,381.151,258.612,381.151,273.84z
	 M360.216,441.44c-35.78,27.961-173.574,26.858-210.306,0c19.61-40.526,17.295-84.602,5.905-117.037
	c52.653,24.308,150.574,24.096,202.358-0.927C346.156,357.727,340.418,398.753,360.216,441.44z M334.5,436.034
	c-7.738-20.266-13.081-58.976-6.203-85.668l-14.395,3.176c-4.831,22.271-2.092,61.013,6.914,86.067
	C324.04,440.295,332.022,438.208,334.5,436.034z M329.226,69.197c-9.021,17.387-19.593,40.503-24.585,65.279
	c5.491,4.382,10.442,9.608,14.6,15.796c3.111-29.571,17.069-58.596,27.512-78.179c9.314-17.466-6.63-31.73-31.968-13.852
	c-20.663,14.584-36.771,34.892-47.93,60.403c5.733,0.728,11.329,2.089,16.677,4.032C298.944,89.416,321.424,73.072,329.226,69.197z
	 M167.193,72.093c-9.293-17.423,6.596-31.754,31.968-13.852c20.671,14.586,36.78,34.902,47.939,60.423
	c-5.733,0.739-11.329,2.105-16.677,4.06c-13.59-29.219-33.959-47.695-45.702-53.527c9.033,17.409,19.619,40.565,24.605,65.379
	c-5.53,4.434-10.479,9.707-14.601,15.884C191.655,120.825,177.66,91.717,167.193,72.093z M227.929,182.021
	c0-6.906,4.244-12.504,9.479-12.504c5.233,0,9.478,5.598,9.478,12.504c0,6.907-4.244,12.505-9.478,12.505
	C232.173,194.526,227.929,188.928,227.929,182.021z M268.54,182.021c0-6.906,4.244-12.504,9.478-12.504
	c5.235,0,9.479,5.598,9.479,12.504c0,6.907-4.244,12.505-9.479,12.505C272.784,194.526,268.54,188.928,268.54,182.021z
	 M358.716,225.533c-7.037-1.541-15.094-2.518-23.424-2.936c-0.099-4.955-0.967-9.845-2.557-14.57
	c5.373-1.345,10.8-2.353,16.203-2.978c2.946-0.343,2.453-4.8-0.517-4.467c-5.778,0.669-11.58,1.753-17.32,3.215
	c-2.683-6.134-6.614-11.915-11.679-17.106c-0.177-13.898-5.597-27.138-15.494-37.639c-11.848-12.574-28.935-19.786-46.883-19.786
	c-17.945,0-35.032,7.212-46.882,19.786c-9.897,10.501-15.317,23.74-15.493,37.639c-4.95,5.073-8.813,10.709-11.492,16.686
	c-5.171-1.245-10.385-2.191-15.58-2.794c-2.974-0.331-3.455,4.124-0.518,4.467c4.808,0.557,9.632,1.415,14.42,2.544
	c-1.693,4.893-2.608,9.967-2.699,15.111c-7.644,0.465-15.002,1.407-21.495,2.828c-2.907,0.639-1.944,5.029,0.963,4.395
	c6.242-1.37,13.316-2.281,20.661-2.737c2.532,34.015,39.053,57.183,78.115,57.183c37.705,0,75.593-22.153,78.124-57.292
	c8.032,0.41,15.796,1.358,22.582,2.847C360.696,230.574,361.588,226.163,358.716,225.533z M318.424,222.513
	c-7.68,0.309-15.175,1.085-21.913,2.339c-0.06-0.59-0.132-1.17-0.223-1.744c6.426-3.878,13.297-7.223,20.409-9.981
	C317.684,215.998,318.319,219.127,318.424,222.513z M211.836,193.716c-1.77-29.743,19.713-47.592,45.21-47.592
	c25.257,0,46.994,17.592,45.213,47.592c3.63,3.297,8.951,7.722,12.703,15.267c-6.866,2.672-13.515,5.873-19.773,9.556
	c-1.473-4.465-4.274-8.767-8.124-11.079c-4.062-2.165-9.113-1.211-13.462,0.28c-2.165-3.745-7.039-9.981-15.495-9.981
	c-8.612,0-13.368,6.422-15.391,10.111c-4.451-1.574-9.661-2.629-13.828-0.41c-3.809,2.283-6.626,6.553-8.115,11.045
	c-6.73-3.957-13.91-7.354-21.329-10.137C203.183,201.2,208.22,197,211.836,193.716z M288.247,228.057
	c0.03,5.541-2.269,13.837-7.798,13.837c-3.523,0-8.211-1.672-12.297-3.54c-3.61-1.648-5.927-5.255-5.927-9.223v-0.009
	c0-3.92,2.137-7.543,5.562-9.446c4.839-2.686,10.257-5.058,13.734-5.058C285.428,214.619,288.218,222.112,288.247,228.057z
	 M253.725,229.123v0.009c0,3.967-2.319,7.575-5.928,9.223c-4.086,1.868-8.772,3.54-12.297,3.54c-5.54,0-7.826-8.319-7.798-13.837
	c0.025-4.925,2.366-13.438,6.727-13.438c3.476,0,8.897,2.372,13.733,5.058C251.592,221.582,253.725,225.199,253.725,229.123z
	 M219.67,223.07c-0.093,0.581-0.169,1.172-0.229,1.768c-7.282-1.35-15.446-2.146-23.771-2.392c0.12-3.62,0.847-6.946,1.956-9.975
	C205.322,215.336,212.752,218.901,219.67,223.07z M195.836,226.941c8.242,0.258,16.312,1.071,23.462,2.448
	c0.017,0.437,0.043,0.868,0.075,1.298c-6.506,1.042-13.752,3.151-20.902,5.962C197.087,233.51,196.198,230.256,195.836,226.941z
	 M257.046,267.513c-24.851,0-46.9-10.819-56.481-26.823c6.706-2.611,13.462-4.581,19.465-5.552
	c1.193,5.313,4.017,10.561,8.496,13.442c7.969,4.797,21.383-1.357,29.449-5.97c8.026,4.588,21.53,10.738,29.45,5.97
	c4.457-2.868,7.299-8.094,8.498-13.454c5.551,0.894,11.747,2.639,17.957,4.96C303.766,257.708,280.185,267.513,257.046,267.513z
	 M296.578,230.675c0.031-0.42,0.058-0.844,0.073-1.274c6.607-1.273,14.003-2.069,21.597-2.39c-0.342,3.067-1.131,6.083-2.351,9.001
	C309.262,233.51,302.601,231.634,296.578,230.675z M245.64,252.458c5.169-1.478,7.651-2.538,12.297-5.246
	c4.714,2.878,7.014,3.855,12.357,5.246C266.047,256.642,249.887,256.642,245.64,252.458z"/>
</svg>
