<?xml version="1.0" encoding="iso-8859-1"?>
<!-- Generator: Adobe Illustrator 17.1.0, SVG Export Plug-In . SVG Version: 6.00 Build 0)  -->
<!DOCTYPE svg PUBLIC "-//W3C//DTD SVG 1.1//EN" "http://www.w3.org/Graphics/SVG/1.1/DTD/svg11.dtd">
<svg version="1.1" xmlns="http://www.w3.org/2000/svg" xmlns:xlink="http://www.w3.org/1999/xlink" x="0px" y="0px"
	 viewBox="0 0 142.92 142.92" style="enable-background:new 0 0 142.92 142.92;" xml:space="preserve">
<g id="Layer_1_1_">
	<g id="Layer_1_3_">
		<path id="globe-5-icon" style="fill:white;" d="M99.948,43.342c0.308,1.043-0.954,1.24-1.401,1.015
			c-0.257-0.13-0.374,0.16-0.559,0.248c-0.008,0.004-0.018,0.008-0.026,0.012c-0.132,0.003-0.268-0.028-0.359-0.052
			c-0.223-0.062-1.156-0.07-1.504-0.216c-0.001-0.001-0.003-0.001-0.005-0.002c-0.077-0.038-1.259-0.483-1.345-0.456
			c-0.377,0.116-0.821-0.157-1.17,0.116c-0.207,0.16-0.456,0.247-0.66,0.408c-0.284,0.224-0.295,0.233-0.3,0.298
			c-0.001,0.006-0.001,0.013-0.002,0.019c-0.008,0.075-0.016,0.14-0.107,0.179c-0.111,0.047-0.286,0.073-0.373,0.073
			c-0.255,0.001-0.509,0.045-0.763,0.016c-0.23-0.026-0.451,0.13-0.682,0.028c0,0,0,0-0.001,0c-0.423-0.179-0.784-0.469-1.051-0.844
			l-0.266-0.373l0,0c-0.019-0.028-0.021-0.063-0.004-0.092c0.022-0.04,0.069-0.07,0.162,0.019c0,0.001,0.001,0.001,0.002,0.002
			c0.014,0.015,0.036,0.018,0.053,0.009c0.018-0.01,0.027-0.03,0.022-0.049c-0.052-0.221-0.145-0.549-0.069-0.766
			c0.001-0.002,0.002-0.004,0.002-0.006c0.045-0.129,0.228-0.099,0.272-0.23c0.051-0.152-0.034-0.292-0.045-0.438
			c-0.006-0.069,0.068-0.712,0.068-0.714c0.011,0,0.012,0,0.012,0c0.123-0.058,0.177-0.151,0.203-0.256
			c0.069-0.277,0.192-0.533,0.365-0.76c0.047-0.062,0.098-0.205,0.224-0.561c0.048-0.137,0.059-0.17,0.265-0.227
			c0.251-0.07,0.516-0.091,0.775-0.059c0.137,0.017,0.304,0.046,0.501,0.094c0.018,0.005,0.033,0.016,0.041,0.033v0.001
			c0.011,0.022,0.003,0.049-0.019,0.061c-0.057,0.032-0.089,0.096-0.077,0.162c0.013,0.073,0.076,0.127,0.151,0.128
			c0.093,0.001,0.177-0.037,0.251-0.072c0.125-0.057,0.171-0.077,0.274-0.008c0.08,0.055,0.123,0.15,0.111,0.247
			c-0.027,0.212-0.315,0.208-0.311,0.379c0.002,0.07,0.047,0.131,0.113,0.153c0.328,0.099,0.559,0.335,0.66,0.626
			c0.004,0.011,0.009,0.023,0.015,0.034c0.014,0.026,0.073,0.11,0.246,0.09c0.067-0.009,0.71-0.618,0.734-0.667l0,0
			c0.048-0.099-0.092-0.126-0.188-0.177c-0.229-0.122-0.379-0.353-0.398-0.612c-0.019-0.259,0.096-0.509,0.305-0.663
			c0.002-0.001,0.003-0.002,0.005-0.003l1.177-0.68c0.002-0.001,0,0,0.002-0.001c0.02-0.012,0.043-0.019,0.066-0.022
			c0.001,0,0.002,0,0.003,0c0.074-0.008,0.589-0.315,0.776-0.336c0.055-0.008,0.179,0.128,0.142,0.229
			c-0.024,0.065-0.081,0.168-0.216,0.245c-0.161,0.093-0.554,0.297-0.533,0.479c0.027,0.229,0.296,0.144,0.435,0.232
			c0.106,0.068,0.07,0.116,0.041,0.213c0,0.002-0.001,0.005-0.002,0.007c-0.077,0.274-0.2,0.528-0.365,0.759
			c-0.009,0.013-0.015,0.027-0.012,0.04c0.033,0.176,0.033,0.176,0.643,0.419c0.272,0.108,0.58-0.036,0.843,0.125
			c0.595,0.365,1.038,0.946,1.714,1.191C99.034,42.468,99.781,42.776,99.948,43.342z M142.92,71.46
			c0,39.466-31.994,71.46-71.459,71.46C31.994,142.92,0,110.926,0,71.46S31.994,0,71.46,0S142.92,31.994,142.92,71.46z
			 M50.411,23.265c0.035,0.041,0.486,0.067,0.527,0.147c0.06,0.119-0.174,0.222-0.123,0.32c0.014,0.027,0.039,0.046,0.069,0.052
			c0.072,0.015-0.227,0.309-0.268,0.373c-0.069,0.104,0.022,0.377,0.177,0.37c0.159-0.006,0.26-0.103,0.409-0.275
			c0,0,0.406-0.226,0.679-0.453c0.265-0.221,0.806-0.284,1.006-0.661c0.109-0.205,0.307-0.338,0.47-0.373
			c0.07-0.015,0.141,0.025,0.165,0.093c0.022,0.094,1.269-0.458,1.224-0.675c-0.039-0.202,0.077-0.222,0.207-0.167
			c0.091,0.038,0.166,0.01,0.224-0.039c0.375-0.313,0.942-0.691,1.415-0.57c0.114,0.029,0.235,0.013,0.337-0.045
			c0.472-0.27,0.526-0.143,0.412-0.099c-0.123,0.048-0.468,0.173-0.399,0.284c0.017,0.028,0.052,0.04,0.083,0.027
			c0.203-0.08,0.414-0.122,0.632-0.126c0.302-0.005,0.748-0.055,1.146-0.266c0.017-0.009,0.035-0.018,0.052-0.027
			c0.003-0.002,0.007-0.003,0.01-0.005c0.944-0.479,1.333-0.794,1.533-0.66c0.061,0.042,0.095,0.113,0.089,0.187
			c0.001,0.001,0.002,0.001,0.004,0.002c0.155,0.109,0.319,0.003,0.505-0.044c0,0,0.151,0.154,0.719,0.147
			c-0.135,0.347,5.82-0.946,9.59-4.07c1.022-0.846,2.156-1.629,3.29-2.333c-1.039-0.056-2.084-0.087-3.136-0.087
			c-4.085,0-8.068,0.431-11.91,1.243c0.274,0.039,0.251,0.371,0.076,0.432c-0.463,0.16-0.988,0.165-1.377,0.502
			c-0.034,0.029-0.043,0.078-0.022,0.118c0.022,0.039,0.067,0.058,0.111,0.045c0.079-0.024,0.222-0.076,0.561-0.202
			c0.059-0.022,0.131,0.019,0.122,0.082c-0.004,0.024-0.019,0.044-0.042,0.054c-0.167,0.073-0.354,0.105-0.514,0.19
			c-0.032,0.017-0.05,0.052-0.043,0.088c0.016,0.086-0.061,0.252-0.01,0.3c0.001,0,0.001,0.001,0.002,0.001
			c-0.013,0.015-1.654,1.133-2.274,1.173c-0.001,0-0.002,0-0.003,0c-0.744,0.034-1.431,0.332-1.636,0.501
			c-0.206,0.171-0.43,0.316-0.671,0.435c-0.5,0.249-0.948,0.672-1.24,0.99c-0.15,0.162,0.112,0.221,0.318,0.301
			c0,0,0.141,0.045-0.077,0.076c-0.822,0.112-1.528,1.04-1.741,1.351c-0.041,0.059-0.041,0.137-0.001,0.196
			c0.001,0.002,0.003,0.004,0.004,0.006c-0.381,0.377-0.417,0.413-0.698,0.983C50.379,23.193,50.385,23.235,50.411,23.265z
			 M69.012,35.466c-0.002-0.015,0.007-0.028,0.021-0.032c0.015-0.005,0.032-0.002,0.045,0.009c0.009,0.008,0.02,0.015,0.028,0.021
			c0.051,0.034,0.082,0.039,0.1,0.026c0.112-0.08,0.231-0.156,0.351-0.223c0.065-0.036,0.103-0.108,0.139-0.249
			c0.01-0.043,0.052-0.266-0.231-0.424c-0.002-0.001-0.004-0.002-0.006-0.003c-0.023-0.013-0.549-0.284-0.698-0.202
			c-0.099,0.052-0.099,0.052-0.282-0.042c-0.007-0.027,0.003-0.055,0.025-0.072c0.208-0.16,0.207-0.163,0.203-0.208
			c-0.008-0.1-0.06-0.171-0.12-0.237c-0.052-0.058-0.058-0.143-0.014-0.206c0.001-0.001,0.001-0.002,0.002-0.003
			c0.04-0.054-0.168-0.501-0.171-0.504c-0.014-0.015-0.021-0.023-0.05-0.022c-0.087,0.006-0.179,0.008-0.266,0.008
			c-0.011,0-0.025,0.002-0.046,0.005c-0.002,0-0.005-0.001-0.006-0.003c-0.005-0.009-0.006-0.019-0.003-0.028
			c0.028-0.11-0.079-0.18-0.09-0.281c-0.01-0.102,0.018-0.202,0.028-0.302c0.008-0.09-0.002-0.193-0.031-0.291
			c-0.105-0.361-0.088-0.743,0.04-1.088c0.054-0.144,0.128-0.282,0.217-0.406c0.207-0.288-0.723-0.251-0.899-0.239
			c-0.014,0.001-0.027-0.006-0.034-0.018c-0.007-0.012-0.007-0.026,0.001-0.038c0.045-0.068,0.051-0.157,0.114-0.216
			c0.085-0.081,0.201-0.107,0.298-0.167c0.214-0.134,0.035-0.216-0.043-0.237c-0.187-0.048-0.383-0.073-0.576-0.074
			c-0.073,0-0.146,0.01-0.221,0.038c-0.049,0.018-0.105,0.079-0.162,0.158c-0.117,0.163-0.254,0.307-0.411,0.432
			c-0.009,0.007-0.017,0.013-0.025,0.019c-0.044,0.033-0.101,0.04-0.15,0.019c-0.029-0.012-0.061-0.012-0.09,0
			c-0.006,0.002-0.011,0.005-0.017,0.008c-0.053,0.028-0.093,0.07-0.122,0.117c-0.036,0.058-0.028,0.133,0.018,0.183
			s0.121,0.063,0.181,0.031c0,0,0.001,0.002,0.001,0.003c0.008,0.019,0.008,0.041,0,0.059c-0.035,0.077-0.045,0.161-0.077,0.238
			c-0.003,0.009-0.01,0.015-0.02,0.016c-0.014,0.002-0.028-0.004-0.036-0.016c-0.039-0.061-0.058-0.061-0.085-0.056
			c-0.002,0.001-0.006,0.001-0.008,0.002c-0.111,0.023-0.188,0.282-0.184,0.357c0.002,0.026,0.009,0.044,0.022,0.057
			c0.143,0.156,0.155,0.391,0.029,0.562l0,0c-0.013,0.018-0.025,0.036-0.034,0.054c-0.018,0.037-0.007,0.082,0.028,0.105
			s0.08,0.016,0.108-0.015c0.033-0.038,0.074-0.087,0.128-0.152c0.051-0.061,0.068-0.082,0.143-0.115
			c0.059-0.025,0.119-0.049,0.18-0.068c0.023-0.008,0.049-0.003,0.068,0.011c0.019,0.015,0.031,0.038,0.03,0.062
			c-0.006,0.139,0.041,0.291-0.099,0.4c-0.08,0.063-0.143,0.112-0.191,0.153c-0.047,0.04-0.06,0.107-0.031,0.161
			c0.029,0.054,0.092,0.081,0.152,0.064c0,0,0,0,0.007,0.005c0.005,0.004,0.009,0.009,0.01,0.016
			c0.039,0.165,0.044,0.165,0.263,0.033c0.007-0.004,0.015-0.005,0.023-0.003c0.004,0.001,0.007,0.003,0.009,0.007
			c0.03,0.058,0.078,0.104,0.136,0.132c0.081,0.04,0.142,0.115,0.161,0.206c0.001,0.005,0.002,0.011,0.004,0.017
			c0.002,0.005,0.003,0.01,0.005,0.016c0.074,0.227,0.014,0.476-0.155,0.645c-0.169,0.169-0.419,0.227-0.646,0.152h-0.001
			c-0.038-0.012-0.079,0.001-0.102,0.034c-0.023,0.033-0.021,0.077,0.005,0.108c0.022,0.028,0.049,0.053,0.048,0.092
			c-0.004,0.141-0.181,0.088-0.237,0.182c-0.001,0.001-0.001,0.002-0.002,0.003c-0.003,0.007-0.006,0.014-0.007,0.023
			c-0.002,0.018,0.006,0.036,0.019,0.049s0.032,0.017,0.05,0.013c0.082-0.018,0.147-0.087,0.233-0.094
			c0.162-0.011,0.04,0.396-0.014,0.456c-0.059,0.066-0.47,0.212-0.6,0.23c-0.083,0.013-0.139,0.02-0.167,0.05
			c-0.026,0.029-0.043,0.2,0.072,0.256c0.176,0.084,0.339-0.07,0.513-0.025l0,0c0.165,0.043,0.314,0.132,0.43,0.255
			c0.01,0.011,0.022,0.017,0.035,0.022c0.057,0.023,0.12,0.022,0.176-0.002c0.014-0.006,0.027-0.014,0.038-0.024
			c0.046-0.041,0.094-0.054,0.144-0.056c0.037-0.001,0.072,0.022,0.084,0.058s0,0.075-0.031,0.097
			c-0.127,0.091-0.254,0.183-0.432,0.163c-0.094-0.011-0.19-0.011-0.284-0.001c-0.291,0.031-0.565,0.16-0.775,0.371
			c-0.07,0.07-0.145,0.145-0.212,0.214c-0.036,0.037-0.039,0.095-0.007,0.136s0.09,0.051,0.134,0.024
			c0.031-0.018,0.064-0.039,0.101-0.062c0.124-0.077,0.353-0.17,0.477,0.069c0.002,0,0.004,0.001,0.006,0.001
			c0.018,0.006,0.038,0.002,0.054-0.01c0.168-0.126,0.253-0.361,0.499-0.382c0.175-0.014,0.305,0.157,0.484,0.12
			c0.201-0.042,0.367-0.196,0.585-0.184c0.08,0.004,0.302,0.063,0.323,0.076c0.061,0.037,0.061,0.037,0.387,0.043
			c0.137,0.002,0.237,0.114,0.367,0.134c0.158,0.025,0.303-0.069,0.459-0.056c0.001,0,0.001,0,0.002,0s0.001,0,0.001,0
			c0.004,0,0.471-0.089,0.462-0.282c0-0.004-0.002-0.007-0.006-0.009c-0.002-0.001-0.004-0.002-0.006-0.003
			C69.143,35.824,69.034,35.654,69.012,35.466z M64.901,33.71c0.139-0.076,0.017-0.223,0.053-0.331
			c0.096-0.286,0.16-0.293,0.274-0.309c0.11-0.016,0.213-0.03,0.251-0.089c0.18-0.265-0.455-1.028-0.852-0.926
			c-0.412,0.106-0.744,0.708-0.882,0.699c-0.175-0.009-0.255-0.015-0.372,0.077c-0.091,0.07-0.102,0.185-0.169,0.268
			c-0.078,0.102-0.183,0.181-0.263,0.281c-0.067,0.083-0.092,0.155,0.002,0.241c0.07,0.061,0.108,0.095-0.097,0.361
			c-0.17,0.218-0.45,0.334-0.568,0.603c-0.042,0.097-0.036,0.291-0.022,0.368c0.054,0.28,0.488,0.167,0.75,0.054
			c0.238-0.103,0.459-0.245,0.711-0.313c0.002-0.001,0.006-0.001,0.007-0.002c0.347-0.095,0.65-0.001,0.754-0.133
			c0.102-0.13,0.277-0.366,0.359-0.556C64.876,33.91,64.776,33.777,64.901,33.71z M34.332,92.349
			c-0.169-1.356-4.491-6.305-5.715-7.225c-0.966-0.727-1.664-0.732-1.664-0.734c0.056-0.606-0.179-1.204-0.632-1.611
			c-0.171-0.153-0.298-0.357-0.425-0.562c-0.17-0.275-0.47-0.442-0.793-0.443c-0.323,0-0.624,0.167-0.793,0.442l-0.001,0.001
			c0.29-0.968,0.304-1.013-0.463-1.955c-0.411-0.504-0.465-0.456,0.032-1.386c0.071-1.269-2.413-5.319-4.614-7.8
			c-0.071-0.081-0.178-0.124-0.308-0.099c-0.225-0.207-1.314-4.212-1.555-5.152c-0.011-0.045-0.001-0.093,0.029-0.129
			c0.192-0.231,0.268-0.535,0.21-0.829c-0.048-0.243-0.143-0.526-0.158-0.773c-0.028-0.457-0.457-0.831-0.533-0.777
			c-0.119,0.084-0.246,0.093-0.358,0.048c-0.114-0.046-0.2-0.146-0.224-0.288c-0.093-0.494-0.523-0.851-1.026-0.85
			c-0.201,0-0.24-0.043-0.273-0.188c-0.507,3.065-0.775,6.211-0.775,9.421c0,15.247,5.955,29.089,15.666,39.333
			c-0.44-0.572-0.913-1.587-0.917-1.74c-0.012-0.398-0.093-0.795-0.238-1.165c-0.123-0.314-0.267-0.624-0.409-0.933
			c-0.48-1.048,1.678-1.222,2.278-2.206c0-0.001,0-0.001,0.001-0.002c0.045-0.091,0.408-0.137,0.842,0.173
			c0.347,0.248,0.85-0.325,0.803-0.526c-0.144-0.642-0.145-0.747-0.066-1.33c0.135-0.997-0.137-3.469-0.255-3.802
			c-0.395-1.128-0.479-1.7-0.484-1.973c-0.004-0.2,0.534-0.353,0.631-0.688c0.196-0.676,1.349-1.929,1.706-2.533
			C34.16,93.545,34.407,92.953,34.332,92.349z M45.331,21.727c-0.095-0.159-0.288-0.231-0.464-0.173
			c-0.123,0.041-0.358,0.12-0.429,0.011c-0.024-0.039-0.025-0.087-0.002-0.127c0.052-0.087,0.192-0.267,0.204-0.349
			c0.009-0.069,0.045-0.131,0.098-0.177c0.021-0.018,0.046-0.029,0.068-0.046c-5.586,2.947-10.625,6.79-14.923,11.341
			c0.018-0.004,0.036-0.005,0.054,0c0.679,0.189,0.629,0.042,1.21-0.661c0.338-0.408,0.949-0.56,1.289-0.679
			s0.903-0.174,0.904-0.174c0.327-0.061,1.265,0.151,1.538-0.069c0.228-0.185-0.064-0.249,0.07-0.45
			c0.129-0.192,0.238-0.398,0.326-0.611c0.075-0.181,0.299-0.236,0.465-0.338c0.283-0.174,0.01-0.173-0.045-0.266
			c-0.042-0.071,0.004-0.332,0.109-0.349c0.001,0,0.003,0,0.005,0.002c0.149,0.137,0.357,0.193,0.554,0.147
			c0.172-0.039,0.233-0.1,0.283-0.205c0.034-0.072,0.097-0.127,0.175-0.15c0.001,0,0.002-0.001,0.002-0.001
			c0.465-1.117-1.601-0.485-1.601-0.486c-0.083-0.165,1.09-0.54,1.273-0.592c0.001,0.001,0.002,0.001,0.003,0.002
			c0.001,0.001,0.003,0.002,0.005,0.003c0.109,0.029,0.208,0.013,0.301-0.024c0.558-0.219,1.188,0.055,1.408,0.613v0.001
			c0.06,0.15,0.186,0.263,0.342,0.305c0.184,0.049,0.366,0.102,0.561,0.029c1.002-0.374,1.294-0.053,2.13-0.424
			c0.002-0.001,0.005-0.002,0.007-0.003c1.09-0.487,1.139-2.905,2.62-4.233c0.145-0.13,0.303-0.249,0.469-0.354
			c0.271-0.171,0.448-0.435,0.637-0.687c0.09-0.12,0.191-0.238,0.296-0.345C45.4,22.08,45.423,21.883,45.331,21.727z M126.605,56.39
			c0.039,0.119,0.078,0.249,0.117,0.376c-4.666-17.621-17.522-31.892-34.257-38.498c0.116,0.092,0.179,0.239,0.155,0.392
			c-0.045,0.283-0.377,0.364-0.403,0.432c-0.079,0.208,0.457,0.481,0.614,0.638c0.087,0.087,0.09,0.227,0.007,0.318
			c-0.002,0.002-0.005,0.003-0.007,0.002c-0.265-0.064-0.544,0.004-0.75,0.182c-0.201,0.174-0.486,0.297-0.654,0.358
			c-0.099,0.036-0.191,0.093-0.268,0.164v0.001c-0.093-0.028-0.192-0.025-0.283,0.009c-0.374,0.138-0.588,0.846-0.511,1.107
			c0.029,0.102,0.008,0.214-0.06,0.3c-0.087,0.109-0.234,0.152-0.366,0.106c-0.078-0.027-0.296,0.16-0.19,0.241
			c0.125,0.095-0.047,0.164-0.175,0.254c-0.063,0.044-0.144,0.059-0.223,0.035c-0.456-0.138-0.429-0.253-0.569,0.103
			c-0.066,0.167-0.156,0.325-0.268,0.466c-0.071,0.09-0.063,0.22,0.02,0.3c0.672,0.648-0.296,0.544-0.643,0.386
			c-0.315-0.143-0.498,0.392,0.085,0.394c0.159,0.001,0.311,0.069,0.418,0.188l0,0c0.3,0.332-0.387,0.223-0.812,0.073
			c-0.36-0.127-0.703-0.316-1.004-0.553c-0.19-0.151-0.262-0.406-0.18-0.634c0.083-0.228,0.302-0.377,0.545-0.371
			c0.35,0.009,0.649-0.25,0.69-0.598c0.04-0.348-0.192-0.668-0.534-0.74c-0.842-0.176-1.777-0.067-2.557-0.428
			c-0.673-0.311-1.231-0.255-1.402-0.482c-0.074-0.099-0.105-0.222-0.085-0.344l0,0c-0.362-0.07-0.592-0.114-0.747-0.146
			c-0.149-0.03-0.605-0.038-1.227,0.157c-1.344,0.426-2.618,1.672-2.618,1.672l0,0c0,0-0.255,0.438-0.503,0.721
			c-0.226,0.259-0.398,0.571-0.649,0.805c-0.1,0.092-0.167,0.213-0.194,0.345l-0.001,0.001c-0.002,0-0.003,0.001-0.004,0.001
			c-0.131,0.037-0.234,0.141-0.271,0.272c-0.164,0.583-0.622,1.451-3.08,2.484H73.76c-0.722,0.305-1.176,1.029-1.136,1.811
			c0.04,0.783,0.564,1.458,1.313,1.688c0.93,0.286,1.143-0.742,2.194-0.428c0.395,0.118,0.711,0.417,0.851,0.805
			c0.172,0.48,0.408,0.762,0.43,1.375c0.21,0.21,0.825,0.672,0.897,0.358c0.174-0.745,0.929-0.256,1.253-0.874
			c0.278-0.531-0.139-1.089,0.065-1.623c0.001-0.004,0.003-0.008,0.005-0.012c0.257-0.628,0.323-1.309,0.194-1.975
			c-0.06-0.31,0.019-0.781,0.168-1.674c0.059-0.348,0.744-0.53,0.907-0.786c0.284-0.444-0.191-1.293,0.519-1.452
			c0.355-0.079,0.992,0.085,1.075,0.452c0.03,0.13-0.001,0.267-0.084,0.373c-0.201,0.256-0.291,0.608-0.471,0.883
			c-0.362,0.553-0.441,1.248-0.21,1.868c0.199,0.534,0.521,1.017,1.03,1.058c0.146,0.012,0.293-0.025,0.416-0.105
			c0,0,0.001-0.001,0.002-0.001s0.002-0.001,0.002-0.001c0.002-0.001,0.003-0.001,0.004-0.001l0.731-0.256
			c0.605-0.212,1.26-0.254,1.886-0.117c0,0,0,0,0.001,0c0.06,0.013,0.107,0.058,0.123,0.118c0.016,0.059-0.004,0.122-0.05,0.162
			c-0.758,0.675-0.902,0.227-1.699,0.373c-0.273,0.049-0.482,0.269-0.517,0.544c-0.032,0.248,0.085,0.488,0.293,0.618
			c0.041,0.026,0.065,0.072,0.061,0.121c0,0.001,0,0.003,0,0.004c-0.017,0.241-0.168,0.452-0.39,0.546
			c-0.168,0.071-0.355,0.067-0.516-0.006c-0.125-0.056-0.271-0.044-0.385,0.031c-0.228,0.151-0.147,0.26-0.191,0.459
			c-0.071,0.319-0.053,0.651,0.053,0.96v0.001c0.173,0.507-0.764,1.416-1.143,1.346c-0.77-0.142-1.567-0.02-2.259,0.348
			c-0.327,0.174-0.728,0.122-1.001-0.129c-0.002-0.001-0.003-0.003-0.005-0.004c-0.182-0.167-0.009-0.241-0.237-0.384
			c-0.048-0.03-1.251,0.472-1.305,0.491c-0.055,0.02-0.116,0.014-0.166-0.018s-0.082-0.084-0.088-0.142
			c-0.001-0.002-0.001-0.004-0.001-0.006c-0.042-0.347-1.604-0.303-0.385-1.655c0.002-0.002,0.003-0.005,0.006-0.007
			c0.126-0.139,0.183-0.328,0.153-0.514c-0.049-0.31,0.015-0.604-0.273-0.726c-0.001,0.001-0.002,0.002-0.003,0.003
			c-0.638,0.666-0.943,1.588-0.826,2.504c0.078,1.017-0.409,0.846-0.781,0.836c-0.156-0.005-0.306,0.061-0.408,0.179
			c-0.001,0.002-0.002,0.003-0.004,0.005c-0.148,0-0.359,0-0.714,0.033c-0.152,0.014-0.291,0.092-0.382,0.212
			c-0.01,0.013-0.014,0.03-0.012,0.046c0.013,0.085-0.042,0.165-0.126,0.185c-0.274,0.065-0.524,0.196-0.733,0.385
			c-0.486,0.44-0.733,0.624-1.242,0.908c-0.357,0.198-0.67,0.454-0.937,0.762c-0.112,0.129-0.35,0.27-0.912,0.589
			c-0.052,0.029-0.089,0.079-0.103,0.137c-0.028,0.122-0.129,0.213-0.252,0.231c-0.5,0.072-0.645-0.05-0.932-0.238
			c-0.147-0.097-0.262,0.104-0.225,0.236c0.001,0.002,0.001,0.004,0.002,0.007c0.035,0.126,0.011,0.261-0.066,0.367
			c-0.077,0.106-0.197,0.172-0.328,0.178c-0.345,0.017-0.69-0.057-0.999-0.212c-0.027-0.014-0.059-0.016-0.088-0.007
			c-0.502,0.16-0.796,0.761-0.672,0.774c0.864,0.094,0.85,0.244,1.197,0.465c0.411,0.26,0.212,1.064,0.837,1.131
			c0.003,0,0.007,0.001,0.01,0.001c0.078,0.007,0.142,0.639,0.157,0.719c0.01,0.059-0.015,0.119-0.064,0.152l0,0
			c-0.187,0.124-0.312,0.322-0.341,0.544c-0.057,0.42-0.014,0.867-0.296,1.227c-0.119,0.153-0.392,0.432-0.711,0.31
			c-0.342-0.13-0.709-0.207-1.075-0.225c-1.511-0.071-2.395-0.392-2.839-0.617c-0.325-0.165-0.723-0.087-0.961,0.191l0,0
			c-0.106,0.004-0.234,0.01-0.357,0.017c-0.223,0.012-0.38,0.223-0.327,0.44c0.118,0.491,0.119,0.989-0.455,2.458
			c-0.022,0.057-0.053,0.135-0.082,0.188c-0.186,0.347-0.858,1.026-0.694,1.207c0.018,0.02,0.044,0.032,0.071,0.032
			c0.14,0.003,0.264,0.091,0.314,0.222c0.043,0.111,0.051,0.233,0.022,0.348c-0.047,0.191-0.256,0.859-0.172,1.024
			c0.048,0.093,0.131,0.161,0.231,0.19c0.146,0.043,0.245,0.159,0.37,0.236c0.094,0.055,0.4-0.078,0.582-0.157
			c0.135-0.057,0.218-0.094,0.517,0.249c0.277,0.316,0.061,1.049,0.646,1.061c0.159,0.001,0.25-0.153,0.289-0.246
			c0.042-0.102,0.042-0.102,1.169-0.348c0.499-0.11,0.983,0.206,1.484,0.055c0.384-0.118,0.403-0.624,0.794-0.735
			c0.259-0.074,0.536,0.07,0.791-0.062c0.137-0.075,0.011-0.495,0.162-0.628l0.001-0.001c0.232-0.2,0.324-0.519,0.233-0.812
			c-0.043-0.14-0.034-0.183-0.013-0.283c0.025-0.121,0.394-0.332,0.605-0.818c0.018-0.041,0.039-0.079,0.067-0.105
			c0.689-0.631,1.624-0.778,2.406-1.226c0.687-0.393,0.208-1.453,1.018-1.775c0.75-0.298,1.307,0.743,2.078,0.302
			c0.818-0.466,1.836-1.048,2.05-1.058c0.223-0.01,0.424,0.045,0.593,0.122c0.258,0.119,0.477,0.31,0.627,0.552
			c0.742,1.192,2.155,1.698,3.018,2.767c0.129,0.16,0.786,0.552,1.037,0.787c0.406,0.379,0.173-0.114,0.526,0.495
			c0.002,0.003,0.003,0.006,0.005,0.009c0.172,0.267,0.476,0.738,0.189,0.859c-0.201,0.084-0.199,0.145-0.197,0.214
			c0.004,0.154-0.126,0.297-0.032,0.457c0.026,0.045,0.129,0.185,0.346,0.079c0.257-0.132,0.162-0.179,0.264-0.377
			c0.252-0.505,0.244-0.535,0.238-0.534c0.087-0.062,0.249-0.011,0.276-0.159c0.067-0.352-0.18-0.471-0.343-0.547
			c-0.104-0.051-0.298-0.143-0.181-0.443c0.003-0.008,0.006-0.016,0.01-0.023c0.001-0.003,0.002-0.005,0.003-0.008
			c0.123-0.265,0.433-0.384,0.701-0.27c0.196,0.084,0.348,0.125,0.42,0.327c0.013,0.037,0.021,0.072,0.02,0.099
			c-0.004,0.089-0.007,0.172,0.032,0.207c0.054,0.05,0.24,0.008,0.291-0.087c0.03-0.055,0.067-0.237,0.065-0.293
			c0-0.001,0-0.001,0-0.003c0-0.002,0-0.005-0.001-0.007c-0.001-0.009-0.005-0.017-0.009-0.025
			c-0.484-0.758-1.385-0.816-2.081-1.217c-0.078-0.045-0.126-0.123-0.135-0.207c-0.019-0.174-0.166-0.305-0.34-0.304
			c-0.427,0.005-0.829-0.204-1.072-0.556l-1.461-2.126c-0.061-0.089-0.119-0.182-0.172-0.277c-0.095-0.173-0.013-0.386,0.165-0.454
			c0.011-0.005,0.023-0.008,0.035-0.012c0.283-0.085,0.587,0.026,0.748,0.273c0.081,0.123,0.161,0.262,0.308,0.252
			c0.178-0.011,0.352,0.04,0.496,0.145l2.511,1.832c0.001,0.001,0.002,0.001,0.003,0.002c0,0,0.214,0.045,0.535,0.259
			c0.069,0.046,0.15,0.068,0.23,0.065c0.125-0.005,0.249,0.036,0.347,0.115c0.381,0.307,0.626,0.751,0.684,1.237
			c0.026,0.217,0.042,0.415,0.053,0.556l0,0c0.013,0.181,0.107,0.347,0.255,0.452c0.068,0.048,0.154,0.113,0.202,0.163
			c0.061,0.065,0.073,0.084,0.187,0.279c0.046,0.081,0.34,0.342,0.367,0.365c0.001,0.001,0.002,0.002,0.004,0.003
			c0.012,0.01,0.045,0.031,0.098,0.032c0.002,0,0.005,0,0.007,0c0.09,0.002,0.176-0.036,0.264-0.031
			c0.272,0.016,0.679,0.361,0.991,0.205c0.028-0.014,0.355-0.205,0.355-0.205l0.005-0.003c0.759-0.35-0.178-0.707-0.209-1.054
			c-0.011-0.126,0.035-0.217,0.119-0.274c0.079-0.053,0.179-0.066,0.281-0.018c0.058,0.026,0.125,0.019,0.176-0.018h0.001
			c0.062-0.044,0.104-0.109,0.12-0.183c0.083-0.399,0.491-0.515,0.894-0.515c0.336,0,0.668,0.085,0.961,0.248
			c0.12,0.067,0.256,0.098,0.395,0.09c0.001,0,0.001,0,0.002,0c0.262-0.015,0.51-0.105,0.721-0.26
			c0.099-0.073-0.126,0.196-0.622,0.384c-0.004,0.001-0.008,0.003-0.012,0.005c-0.207,0.085-0.321,0.306-0.271,0.523
			c0.1,0.437,1.012,0.87,0.416,1.432c-0.007,0.007-0.015,0.014-0.022,0.02l0.002,0.001c0.332,0.135,0.609,0.373,0.793,0.681
			c0.605,1.013,2.627,1.33,2.806,0.899c0.001-0.002,0.001-0.003,0.002-0.005c0.089-0.232,0.349-0.348,0.581-0.26
			c0.461,0.175,0.875,0.52,1.405,0.466c0.301-0.031,0.52-0.142,0.699-0.296c0.498-0.428,1.119-0.688,1.774-0.739h0.001
			c0.006,0,0.011,0.002,0.015,0.006s0.006,0.01,0.005,0.016c-0.329,1.932,1.821,4.076-0.3,5.829
			c-0.168,0.139-0.467,0.208-0.681,0.247c-1.913,0.338-3.851,0.035-5.771,0.165c-1.11,0.075-1.27-0.322-1.617-0.329
			c-0.002,0-0.004,0-0.006,0c-0.003,0-0.007,0-0.01,0c-0.374,0.008-0.446,0.008-1.004-0.119c-0.347-0.079-1.275-1.41-2.539-0.381
			c-0.362,0.296-0.578,0.679-0.568,0.899c0.157,3.159-3.733,0.836-4.021,0.489c-0.443-0.53-1.035-0.918-1.7-1.11
			c-0.731-0.212-1.613-0.498-2.169-0.789c-0.422-0.22-0.932-0.355-1.148-0.366c-0.078-0.013-0.117-0.396,0.122-0.637
			c0.629-0.634,0.825-0.889,0.625-1.225c-0.525-0.884-0.179-0.807-0.642-1.406c-0.002-0.002-0.003-0.004-0.005-0.006
			c-0.164-0.211-0.421-0.326-0.687-0.309c-7.859,0.501-9.551,0.729-11.101,1.472c-0.137,0.064-0.417,0.198-0.855,0.006
			c-0.335-0.148-0.715-0.163-1.061-0.042l0,0c-0.509-0.336-1.175-0.302-1.647,0.082l-2.56,2.08c-0.258,0.21-0.485,0.464-0.664,0.745
			c-0.462,0.73-0.432,1.276-0.42,1.539c0.043,0.82-2.301,2.33-3.54,2.19c-0.002,0-0.003,0-0.006,0c0-0.001,0-0.001,0-0.001
			c-0.568,0.229-1.057,0.427-3.905,4.398c-1.564,2.18-1.564,2.18-1.249,2.785c0.17,0.325,0.515,0.985,0.255,2.795
			c-0.016,0.117-0.04,0.236-0.068,0.352c-0.014,0.054-0.029,0.111-0.045,0.164l-1.096,3.642c-0.307,1.018-0.105,2.125,0.541,2.969
			v0.001c0.004,0.005,0.007,0.009,0.009,0.015l0.239,0.45c0.04,0.075,0.078,0.153,0.112,0.23c0.234,0.532,0.562,3.507,1.441,4.859
			c0.138,0.211,0.298,0.408,0.479,0.585l2.773,2.726c0.487,0.479,1.454,0.805,2.125,0.935c1.978,0.38,4.078,0.395,6.024,1.129
			c0.094,0.036,0.222,0.085,0.323,0.09c2.254,0.152,4.101-1.723,6.284-1.876c0.513-0.035,1.557,0.299,1.822,1.827
			c0.197,1.138,1.953,0.778,2.78,0.536c0.375-0.11,0.777-0.09,1.14,0.058c0.003,0.001,0.005,0.004,0.005,0.007
			c0,0.002,0.001,0.006,0.001,0.009c0.025,0.247,0.244,0.428,0.491,0.407c0.007,0,0.015-0.001,0.022-0.002
			c0.142-0.014,0.281,0.051,0.359,0.17c0.451,0.683,0.364,1.123,0.295,1.453c0,0.001,0,0.001-0.001,0.002
			c-0.001,0.004-0.002,0.008-0.003,0.011l-0.023,0.111c-0.001,0.005-0.002,0.008-0.002,0.013c-0.018,0.082-0.033,0.167-0.044,0.251
			c-0.228,1.674-0.09,2.453-0.865,3.073c-0.084,0.067-0.148,0.152-0.191,0.251c0.841,1.725,2.674,2.6,2.674,2.6
			c0.268,0.286,1.85,3.011,2.018,4.214c0.257,1.831,0.257,1.483,0.304,1.562c0.808,1.321,0.101,1.944-0.392,2.196
			c-0.151,0.078-0.227,0.137-0.268,0.218c-0.074,0.145-0.16,0.289-0.253,0.423c-0.08,0.115-1.092,2.847-1.087,3.413
			c0,0.001,0,0.002,0,0.003c0.004,0.519,0.863,1.018,1.166,1.44l1.944,2.715c0.033,0.047,0.069,0.094,0.105,0.139
			c0.672,0.848-0.363,2.047,0.239,2.899c0.196,0.278,0.676,1.391,0.929,1.566c0.394,0.271,2.044,2.656,1.554,3.061
			c-0.052,0.043-0.045,0.159-0.023,0.224c0.147,0.425,2.146,1.104,2.885,0.788c1.097-0.469,3.398-0.835,4.336-0.829
			c1.297,0.01,7.536-4.463,7.044-6.005c-0.007-0.02-0.008-0.042-0.005-0.063c0-0.001,0-0.001,0.001-0.001
			c0.73-0.861,2.846-1.92,2.788-2.029c-0.001-0.002-0.002-0.003-0.003-0.005c0.274-0.609,0.368-1.114,0.373-1.515
			c0.013-1.09,0.537-2.11,1.413-2.757c0.748-0.553,1.837-1.342,3.434-2.499c0.997-0.723,1.499-1.235,1.414-4.349
			c-0.079-2.856-0.588-5.086-0.758-5.567c-0.239-0.675-0.172-0.801,0.097-1.303c0.802-1.481,1.888-2.786,2.655-4.289
			c1.219-2.389,2.717-3.794,3.538-4.554c0.036-0.034,0.069-0.067,0.101-0.105c1.485-1.741,2.339-4.094,2.879-6.301
			c0.114-0.468,0.296-0.913,0.433-1.372c0.103-0.348,0.254-0.646,0.438-2.447c0.032-0.308-0.138-0.583-0.123-0.889
			c0.068-1.186-0.339-0.141-0.687,0.027c-0.887,0.421-0.407,0.273-0.793,0.523c-0.187,0.118-1.618,0.623-1.791,0.784
			c-0.202,0.187-0.392,0.396-0.684,0.434c-1.762,0.221-2.073,0.259-2.384-0.028c-0.295-0.271-0.482-0.612-0.56-1.005
			c-0.082-0.412-0.29-0.795-0.607-1.091c-1.687-1.574-4.992-2.596-5.774-6.865c-0.119-0.642-4.817-7.425-5.78-8.798
			c-0.108-0.153-0.143-0.347-0.095-0.528c0.001-0.002,0.001-0.005,0.001-0.007c0.183,0.467,0.912,1.301,1.357,1.76
			c0.127,0.132,0.307,0.192,0.452,0.082c0.173-0.132,0.058-0.327,0.094-0.949c0.01-0.178,0.267-0.19,0.296-0.016
			c0.065,0.388,0.253,0.742,0.536,1.015c0.624,0.602,1.383,1.718,1.884,2.503c0.307,0.482,0.722,0.874,1.22,1.155
			c0.712,0.402,0.926,1.061,1.435,2.623c0.603,1.85,2.769,2.292,3.569,3.963c0.678,1.409,0.858,3.016,1.72,4.353
			c0.006,0.009,0.012,0.019,0.019,0.027c0.11,0.148,0.297,0.218,0.478,0.176c1.31-0.307,2.829-1.947,3.206-2.24
			c0.79-0.616,1.364-1.079,1.785-1.433c0.574-0.483,0.973-1.134,1.144-1.864c0.145-0.615,1.081-1.154,1.362-1.156
			c0.732-0.006,0.404-0.956,0.709-1.382c0.325-0.449,0.35-0.952,0.725-1.35c0.121-0.128,0.261-0.232,0.418-0.31
			c0.016-0.008,0.027-0.023,0.03-0.04c0.092-0.48-0.209-0.918-0.204-1.389c0.001-0.121,0.114-0.215,0.236-0.191
			c0.004,0.001,0.008,0,0.012-0.003c0.003-0.002,0.006-0.006,0.007-0.01c0.26-1.482,0.759-2.733-0.551-3.348
			c-0.517-0.246-1.143,0.141-1.628-0.277c-0.003-0.002-0.006-0.005-0.008-0.007c-0.266-0.229-0.623-0.322-0.966-0.251
			c-0.343,0.071-0.635,0.297-0.788,0.613c-0.001,0.002-0.003,0.005-0.004,0.008c-0.134,0.274-0.395,0.462-0.697,0.505
			c-0.487,0.069-0.434,0.156-0.809,0.439h-0.001c-0.794-0.417-1.287-0.453-4.092-4.636c-0.837-1.246,0.301-1.87,0.695-1.414
			c0.001,0.001,0.002-0.001,0.002-0.001c0.001,0,0.002-0.001,0.003-0.001c0.349,0.378,1.77,1.883,2.923,2.527
			c0.392,0.218,1.576,0.518,1.792,0.121c0.801-1.465,1.378-0.403,1.489-0.167c0.589,1.253,2.232,0.16,2.598,0.179
			c0.8,0.041,0.728-0.123,3.019-1.42c0.908-0.514,1.999-0.594,2.971-0.217C125.529,54.603,126.28,55.398,126.605,56.39z
			 M80.235,49.661c0.026-0.205,0.188-0.355,0.225-0.556c0.018-0.092-0.013-0.138-0.091-0.147c-0.011-0.001-0.023-0.001-0.035,0.001
			c-0.052,0.01-0.099,0.04-0.153,0.047c-0.173,0.018-0.153-0.06-0.304,0.029c-0.077,0.045-0.146,0.104-0.237,0.125
			c-0.086,0.019-0.163-0.036-0.249-0.028c-0.117,0.009-0.19,0.131-0.313,0.128c-0.163-0.005-0.269-0.147-0.423-0.174
			c-0.098-0.018-0.154,0.093-0.248,0.086c-0.096-0.008-0.068-0.046-0.146-0.071c-0.121-0.041-0.259,0.394-0.234,0.436
			c0.038,0.066,0.096,0.075,0.129,0.078c0.003,0,0.006,0,0.008,0.001c0.065,0.006,0.119-0.044,0.184-0.048
			c0.184-0.012,0.774,0.396,0.977,0.483c0.066,0.028,0.139,0.038,0.201,0.076c0.117,0.071,0.203,0.184,0.326,0.243
			c0.041,0.02,0.111,0.052,0.21,0.035c0.07-0.012,0.173-0.031,0.283-0.391C80.391,49.87,80.217,49.794,80.235,49.661z"/>
	</g>
</g>
<g id="Layer_1">
</g>
</svg>
