<?xml version="1.0" encoding="utf-8"?>
<!-- Generator: Adobe Illustrator 16.0.0, SVG Export Plug-In . SVG Version: 6.00 Build 0)  -->
<!DOCTYPE svg PUBLIC "-//W3C//DTD SVG 1.1//EN" "http://www.w3.org/Graphics/SVG/1.1/DTD/svg11.dtd">
<svg version="1.1" id="Layer_13" xmlns="http://www.w3.org/2000/svg" xmlns:xlink="http://www.w3.org/1999/xlink" x="0px" y="0px"
	 width="100px" height="100px" viewBox="0 0 100 100" enable-background="new 0 0 100 100" xml:space="preserve">
<path d="M50,11.084c-21.458,0-38.916,17.458-38.916,38.916c0,2.489,0.245,4.923,0.693,7.284l-0.146,0.175
	c0.07,0.059,0.138,0.109,0.208,0.167C15.394,75.445,31.151,88.916,50,88.916c21.458,0,38.916-17.458,38.916-38.916
	S71.458,11.084,50,11.084z M83.144,36.333C83.093,48.958,71.833,51.65,67.1,52.221c3.945-13.605,2.821-26.663,1.958-32.572
	C75.321,23.596,80.283,29.421,83.144,36.333z M65.643,17.742c0.653,3.375,3.119,18.577-1.675,34.319
	C54.845,49.642,53.552,43,51.825,33.957c-1.169-6.126-2.491-12.99-6.694-19.474c1.594-0.217,3.217-0.339,4.869-0.339
	C55.605,14.143,60.913,15.438,65.643,17.742z M41.848,15.089c4.453,6.291,5.793,13.262,6.973,19.441
	c1.714,8.979,3.346,17.479,14.175,20.447c-0.799,2.201-1.749,4.398-2.877,6.562c-22.46-10.88-36.241-28.358-39.237-32.423
	C25.87,22.178,33.271,17.091,41.848,15.089z M19.102,31.835c4.195,5.486,17.939,21.857,39.521,32.371
	c-0.844,1.407-1.774,2.791-2.789,4.148C49.926,65.42,44.377,64.966,39,64.527c-7.44-0.607-15.128-1.255-24.354-8.571
	c-0.326-1.939-0.504-3.926-0.504-5.956C14.143,43.374,15.956,37.167,19.102,31.835z M15.731,60.558
	c8.612,5.831,15.922,6.438,23.021,7.018c5.113,0.417,9.972,0.821,15.12,3.233c-4.148,4.854-9.563,9.235-16.591,12.709
	C27.016,79.61,18.992,71.122,15.731,60.558z M41.403,84.808c6.382-3.564,11.38-7.873,15.282-12.573
	c1.639,0.906,4.851,3.021,5.688,6.066c0.497,1.805,0.046,3.756-1.312,5.803c-3.486,1.133-7.202,1.753-11.061,1.753
	C47.037,85.857,44.158,85.489,41.403,84.808z M65.218,82.458c0.506-1.684,0.552-3.35,0.101-4.983
	c-1.069-3.863-4.598-6.434-6.729-7.677c1.028-1.404,1.966-2.833,2.823-4.285c5.354,2.403,11.158,4.416,17.387,5.821
	C75.278,76.077,70.613,79.918,65.218,82.458z M80.64,68.607c-6.372-1.342-12.292-3.353-17.74-5.776
	c1.27-2.456,2.322-4.952,3.192-7.446c2.686-0.195,10.21-1.199,15.299-6.387c1.709-1.742,2.957-3.786,3.758-6.096
	c0.463,2.295,0.708,4.668,0.708,7.098C85.857,56.809,83.949,63.18,80.64,68.607z"/>
</svg>
