<?xml version="1.0" encoding="iso-8859-1"?>
<!-- Generator: Adobe Illustrator 17.0.0, SVG Export Plug-In . SVG Version: 6.00 Build 0)  -->
<!DOCTYPE svg PUBLIC "-//W3C//DTD SVG 1.1//EN" "http://www.w3.org/Graphics/SVG/1.1/DTD/svg11.dtd">
<svg version="1.1" id="Capa_1" xmlns="http://www.w3.org/2000/svg" xmlns:xlink="http://www.w3.org/1999/xlink" x="0px" y="0px"
	 width="64px" height="64px" viewBox="0 0 64 64" style="enable-background:new 0 0 64 64;" xml:space="preserve">
<g>
	<path d="M37.76,46.408H4.068c-0.385,0.466-0.626,1.055-0.626,1.706c0,0.685,0.264,1.304,0.686,1.779h33.911h0.069
		c0.422-0.475,0.686-1.094,0.686-1.779c0-0.651-0.241-1.241-0.626-1.706H37.76z"/>
	<path d="M21.118,61.941c7.913,0,14.683-0.374,17.476-5.126c0.881-1.498,1.37-3.427,1.37-5.922h-1.459H38.12h-0.478H4.595H3.731
		H2.272C2.272,61.302,10.71,61.941,21.118,61.941z"/>
	<path d="M4.461,45.408h33.218h0.096h0.819h1.371c0-3.834-1.152-7.395-3.118-10.371c-3.372-5.104-9.154-8.475-15.729-8.475
		c-10.409,0-18.846,8.438-18.846,18.846h1.371H4.461z M32.466,35.819c0.884,0.852,0.273,2.175-0.559,2.607s-2.225,0.13-2.453-1.044
		l-0.009-3.687L32.466,35.819z M19.868,37.578l1.718-3.263l1.675,3.292c0.382,1.167-0.777,2.05-1.714,2.042
		C20.61,39.641,19.52,38.722,19.868,37.578z M10.477,35.231l3.095-2.004l-0.15,3.69c-0.238,1.204-1.681,1.407-2.494,0.942
		C10.115,37.393,9.614,36.059,10.477,35.231z"/>
	<path d="M61.25,16.744H49.154c0.06-6.18-4.456-11.262-10.76-11.295c-1.371-0.007-1.371,2.119,0,2.126
		c5.172,0.027,8.674,4.148,8.634,9.169h-13.02v3.322h1.637l1.05,13.084c2.665,3.379,4.269,7.631,4.269,12.258v1h-1h-0.608
		c0.27,0.513,0.438,1.088,0.438,1.706c0,0.648-0.182,1.249-0.477,1.779h0.648h1v1c0,3.329-0.843,5.734-2.245,7.478l0.073,0.906
		h17.94l2.884-39.211h1.634V16.744z"/>
</g>
</svg>
