<?xml version="1.0" encoding="iso-8859-1"?>
<!-- Generator: Adobe Illustrator 17.0.0, SVG Export Plug-In . SVG Version: 6.00 Build 0)  -->
<!DOCTYPE svg PUBLIC "-//W3C//DTD SVG 1.1//EN" "http://www.w3.org/Graphics/SVG/1.1/DTD/svg11.dtd">
<svg version="1.1" id="Capa_1" xmlns="http://www.w3.org/2000/svg" xmlns:xlink="http://www.w3.org/1999/xlink" x="0px" y="0px"
	 width="64px" height="64px" viewBox="0 0 64 64" style="enable-background:new 0 0 64 64;" xml:space="preserve">
<g>
	<path d="M52.373,40.796c-4.924,0-5.026-0.615-5.026-0.615c-0.051,0.026-0.118,0.052-0.174,0.078c-2.509-1.786-5.591-2.05-8.546-2.6
		c-2.021-0.376-3.984-0.904-5.908-1.557c-5.252-6.89-25.171-25.257-25.171-25.257c-4,2.667-6.257,9.54-2.359,21.644
		c3.898,12.104,2.359,18.464,2.359,18.464l2.77-0.103c-1.641-20.413,0.205-21.951,12.412-13.027
		c12.207,8.924,6.155,13.745,14.976,14.156c8.822,0.41,21.028-2.564,22.772-5.847C62.22,42.847,57.297,40.796,52.373,40.796z
		 M33.505,37.214c0.972,0.306,1.953,0.59,2.954,0.827c3.247,0.769,6.893,0.805,9.79,2.581C43.08,41.674,36.668,42.262,33.505,37.214
		z"/>
</g>
</svg>
