<?xml version="1.0" encoding="iso-8859-1"?>
<!-- Generator: Adobe Illustrator 16.0.0, SVG Export Plug-In . SVG Version: 6.00 Build 0)  -->
<!DOCTYPE svg PUBLIC "-//W3C//DTD SVG 1.1//EN" "http://www.w3.org/Graphics/SVG/1.1/DTD/svg11.dtd">
<svg version="1.1" xmlns="http://www.w3.org/2000/svg" xmlns:xlink="http://www.w3.org/1999/xlink" x="0px" y="0px"
	 width="38.226px" height="32.744px" viewBox="0 0 38.226 32.744" style="enable-background:new 0 0 38.226 32.744;"
	 xml:space="preserve">
<g id="b164_cuttlery">
	<path style="fill-rule:evenodd;clip-rule:evenodd;" d="M7.403,1.294L6.981,9.271h-1.83L4.995,1.132h-1.27L3.53,9.271H1.968
		L1.322,1.294H0v8.25l0.011,0.004c0.084,2.631,1.384,2.889,3.145,3.637H3.121v5.512v0.002v13.373
		c1.511,1.512,2.678,0.002,2.678,0.002l0.005-13.596H5.799v-5.292c0,0,2.884-1.008,2.968-3.643h0.012l-0.004-8.25H7.403z"/>
	<path style="fill-rule:evenodd;clip-rule:evenodd;" d="M16.959,0.746h-1.87v30.965h3.736v-16.37h3.237
		c1.86-8.135-3.237-14.596-3.237-14.596H16.959z"/>
	<path style="fill-rule:evenodd;clip-rule:evenodd;" d="M33.194,0c-2.782,0-5.035,3.365-5.035,7.518c0,3.32,1.443,6.133,3.443,7.127
		v17.02h3.354V14.546c1.908-1.068,3.27-3.809,3.27-7.029C38.226,3.365,35.974,0,33.194,0z"/>
</g>
<g id="Capa_1">
</g>
</svg>
