<?xml version="1.0" encoding="utf-8"?>
<!-- Generator: Adobe Illustrator 16.0.4, SVG Export Plug-In . SVG Version: 6.00 Build 0)  -->
<!DOCTYPE svg PUBLIC "-//W3C//DTD SVG 1.1//EN" "http://www.w3.org/Graphics/SVG/1.1/DTD/svg11.dtd">
<svg version="1.1" id="Capa_1" xmlns="http://www.w3.org/2000/svg" xmlns:xlink="http://www.w3.org/1999/xlink" x="0px" y="0px"
	 width="19.17px" height="13.158px" viewBox="0 0 19.17 13.158" enable-background="new 0 0 19.17 13.158" xml:space="preserve">
<path d="M18.75,11.94h-0.69v-0.703h-0.397V6.485h0.397V5.97h0.352V5.572H18.06V5.058H15.66V4.237h0.129V3.864h-0.947V3.546h0.229
	V3.009h-0.449V2.457h-0.696c-0.733-1.369-2.317-2.333-4.18-2.436V0C9.692,0,9.64,0.01,9.585,0.011C9.532,0.01,9.479,0,9.426,0v0.021
	c-1.861,0.103-3.443,1.067-4.18,2.436H4.552v0.552H4.101v0.537h0.23v0.318H3.383v0.373h0.13v0.821h-2.4v0.514H0.764V5.97h0.349
	v0.515h0.398v4.752H1.112v0.703H0.424L0,13.158h19.17L18.75,11.94z M2.774,11.237h-0.56V6.485h0.561L2.774,11.237L2.774,11.237z
	 M4.155,11.237H3.478V6.485h0.678L4.155,11.237L4.155,11.237z M6.014,11.237H4.936V6.462h1.078V11.237z M7.873,11.237H6.794V6.462
	h1.079V11.237z M10.521,11.237h-1.87V6.462h1.87V11.237L10.521,11.237z M12.378,11.237H11.3V6.462h1.078V11.237z M14.235,11.237
	h-1.08V6.462h1.08V11.237z M15.694,11.237h-0.68V6.485h0.68V11.237z M16.959,11.237h-0.563V6.485h0.563V11.237z"/>
</svg>
