<?xml version="1.0" encoding="iso-8859-1"?>
<!-- Generator: Adobe Illustrator 17.0.0, SVG Export Plug-In . SVG Version: 6.00 Build 0)  -->
<!DOCTYPE svg PUBLIC "-//W3C//DTD SVG 1.1//EN" "http://www.w3.org/Graphics/SVG/1.1/DTD/svg11.dtd">
<svg version="1.1" id="Capa_1" xmlns="http://www.w3.org/2000/svg" xmlns:xlink="http://www.w3.org/1999/xlink" x="0px" y="0px"
	 width="64px" height="64px" viewBox="0 0 64 64" style="enable-background:new 0 0 64 64;" xml:space="preserve">
<g>
	<path d="M61.375,49.881c-2.625-0.583-11.25,0-11.25,0s2.625-5.792,1.75-6.167S46.75,41.59,46.75,41.59L42,49.881h-5
		c23.5-30.083-20.625-34.917-20.625-34.917c0.568-7.708-1.655-8.708-3.285-8.462L11.501,5L8.805,7.852
		C8.749,7.88,8.695,7.924,8.646,7.986c-0.543,0.695-0.993,1.44-1.391,2.226c-0.178,0.352,0.079,0.677,0.371,0.744
		c-5.497,6.024-5.612,10.071-3.001,18.009c3.125,9.5,2.5,30.75,2.5,30.75H9.75c0,0-3.75-37,7.375-27.25s9.25,18.75,13.125,24.125
		s18.5,3.125,18.5,3.125l10.75-3.5C59.5,56.215,64,50.465,61.375,49.881z M8.501,10.016C8.758,9.557,9.03,9.107,9.354,8.693
		c0.003-0.003,0.003-0.007,0.005-0.01l0.247,0.234C9.222,9.29,8.848,9.659,8.501,10.016z M15.125,26c0,0-0.25-7.127,0.625-8.001
		S44,25.25,39.375,33.5s-7.25,8.25-8.5,11.75C30.875,45.25,23.5,30.25,15.125,26z"/>
</g>
</svg>
