<?xml version="1.0" encoding="iso-8859-1"?>
<!-- Generator: Adobe Illustrator 17.0.0, SVG Export Plug-In . SVG Version: 6.00 Build 0)  -->
<!DOCTYPE svg PUBLIC "-//W3C//DTD SVG 1.1//EN" "http://www.w3.org/Graphics/SVG/1.1/DTD/svg11.dtd">
<svg version="1.1" id="Capa_1" xmlns="http://www.w3.org/2000/svg" xmlns:xlink="http://www.w3.org/1999/xlink" x="0px" y="0px"
	 width="64px" height="64px" viewBox="0 0 64 64" style="enable-background:new 0 0 64 64;" xml:space="preserve">
<g>
	<path d="M22.549,16.201c0.006-0.005,0.013-0.008,0.019-0.013c-0.049-0.067-0.097-0.134-0.146-0.201
		C22.466,16.059,22.506,16.128,22.549,16.201z"/>
	<path d="M61.478,38.24c-0.896-0.299-7.467,0.299-9.557-0.896c-1.481-0.846-1.178-1.913-3.68-2.094
		c0.003,0.011,0.012,0.019,0.014,0.03c-0.032-0.013-0.064-0.023-0.096-0.035c-0.273-0.104-0.548-0.196-0.826-0.281
		c-0.058-0.018-0.117-0.035-0.175-0.052c-0.433-0.126-0.87-0.232-1.311-0.325c-2.303-0.482-4.683-0.625-6.867-1.547
		c-0.392-0.165-0.778-0.351-1.155-0.574c-2.044-1.206-3.799-2.825-5.405-4.576c-0.781-0.851-1.53-1.731-2.254-2.614
		c-1.904-2.321-3.714-5.295-5.692-8.135c-0.28-0.403-0.565-0.802-0.853-1.197c-1.111-1.525-2.285-2.974-3.564-4.223
		c-0.394-0.385-0.801-0.744-1.216-1.087c-0.301-0.248-0.607-0.486-0.92-0.709c-0.016-0.019-0.033-0.042-0.049-0.061
		c-4.928-5.973-6.869-4.181-6.869-4.181S0.549,13.451,5.328,23.904c0.104,0.227,0.201,0.468,0.3,0.706
		c0.013,0.02,0.03,0.031,0.041,0.054c2.024,4.246,7.231,3.636,11.054,5.027c0.641,0.087,1.364,0.337,2.194,0.784
		c7.765,4.181,12.693,21.355,15.68,24.491c2.987,3.136,12.544,1.941,12.544,1.941s6.72-2.688,10.901-4.779
		C62.224,50.038,62.374,38.539,61.478,38.24z M32.085,31.039c-1.734-1.894-3.438-3.914-5.068-6.016
		c-1.39-1.679-2.704-3.428-3.765-5.266c-1.657-2.535-3.142-5.156-4.376-7.827c0.851,0.75,1.651,1.597,2.419,2.499
		c0.243,0.285,0.484,0.572,0.72,0.868c0.217,0.272,0.433,0.547,0.645,0.827c0.994,1.312,1.935,2.698,2.852,4.079
		c1.617,2.437,3.162,4.855,4.795,6.808c2.038,2.438,4.325,4.614,7.012,6.32c0.22,0.14,0.444,0.266,0.67,0.383
		c2.133,1.101,4.529,1.252,6.859,1.667c0.99,0.177,1.969,0.401,2.91,0.768C42.904,41.613,35.7,34.986,32.085,31.039z"/>
	<path d="M6.686,27.726c3.17,11.297,2.226,29.181,2.226,29.181h3.285c0-13.85-0.584-24.105,2.371-26.647
		C11.811,29.596,8.837,29.341,6.686,27.726z"/>
</g>
</svg>
