<?xml version="1.0" encoding="utf-8"?>
<!-- Generator: Adobe Illustrator 16.0.0, SVG Export Plug-In . SVG Version: 6.00 Build 0)  -->
<!DOCTYPE svg PUBLIC "-//W3C//DTD SVG 1.1//EN" "http://www.w3.org/Graphics/SVG/1.1/DTD/svg11.dtd">
<svg version="1.1" id="Layer_1" xmlns="http://www.w3.org/2000/svg" xmlns:xlink="http://www.w3.org/1999/xlink" x="0px" y="0px"
	 width="26px" height="26px" viewBox="0 0 26 26" enable-background="new 0 0 26 26" xml:space="preserve">
<path d="M16.699,13.417c-0.707-0.833-1.676-1.232-2.841-1.143c-0.062-0.256-0.138-0.496-0.211-0.729
	c-0.156-0.502-0.289-0.936-0.244-1.309c0.039-0.307,0.345-0.689,0.67-1.098c0.289-0.361,0.589-0.735,0.789-1.148
	c0.682-1.4,1.732-4.535,0.851-6.377c-0.319-0.661-0.851-1.082-1.553-1.238c-0.023-0.01-0.064-0.021-0.16-0.021
	c-0.038,0-0.092,0.002-0.181,0.009c-0.581,0.095-1.06,0.45-1.421,1.055c-0.969,1.628-0.87,4.665-0.222,6.596
	c-0.31,0.467-0.757,0.95-1.23,1.459c-0.979,1.06-2.092,2.263-2.438,3.812C8.137,14.97,8.51,16.67,9.539,17.95
	c1.157,1.442,2.984,2.157,5.07,1.952c0.643,1.196,0.684,3.052,0.076,4.109c-0.215,0.378-0.617,0.822-1.297,0.822
	c-0.29,0-0.607-0.08-0.948-0.236c0.118-0.085,0.239-0.152,0.356-0.22c0.418-0.235,0.849-0.482,0.854-1.339
	c0.003-0.47-0.142-0.87-0.417-1.145c-0.258-0.261-0.622-0.404-1.022-0.404c-0.79,0-1.669,0.582-1.739,1.658
	c-0.041,0.635,0.156,1.199,0.569,1.642c0.503,0.535,1.316,0.856,2.172,0.856c1.089,0,2.467-0.546,2.771-2.083
	c0.169-0.863-0.015-1.517-0.223-2.276c-0.14-0.492-0.294-1.051-0.383-1.762c0.197-0.241,0.454-0.461,0.722-0.695
	c0.621-0.535,1.32-1.145,1.48-2.159C17.768,15.518,17.43,14.271,16.699,13.417z M12.85,7.39c-0.291-1.348-0.027-3.897,0.694-4.865
	c0.171-0.229,0.352-0.345,0.535-0.345c0.125,0,0.26,0.053,0.4,0.153C14.842,2.593,15,3.02,14.958,3.598
	C14.848,5.026,13.599,6.822,12.85,7.39z M12.031,11.374c0.179-0.191,0.348-0.377,0.506-0.559c0.125,0.452,0.354,1.261,0.475,1.656
	c-1.218,0.449-1.838,2.016-1.735,3.35c0.103,1.344,0.873,2.224,2.059,2.351c0.006,0,0.012,0,0.02,0c0.002,0,0.006,0,0.008,0
	c0.097,0,0.175-0.078,0.175-0.176c0-0.051-0.022-0.097-0.059-0.129c-0.167-0.262-0.385-0.434-0.579-0.588
	c-0.308-0.245-0.55-0.44-0.602-0.9c-0.096-0.877,0.516-1.54,1.179-1.834c0.371,1.601,0.664,2.981,0.907,4.314
	c-1.341,0.387-2.764-0.013-3.663-0.998c-0.664-0.732-0.978-1.68-0.882-2.676C9.991,13.602,11.123,12.366,12.031,11.374z
	 M14.312,14.354c1.254,0.021,1.643,1.057,1.749,1.504c0.23,0.94-0.032,2.172-0.847,2.732c-0.198-0.696-0.354-1.521-0.523-2.386
	C14.574,15.586,14.452,14.952,14.312,14.354z"/>
</svg>
