<?xml version="1.0" encoding="utf-8"?>
<!-- Generator: Adobe Illustrator 16.0.4, SVG Export Plug-In . SVG Version: 6.00 Build 0)  -->
<!DOCTYPE svg PUBLIC "-//W3C//DTD SVG 1.1//EN" "http://www.w3.org/Graphics/SVG/1.1/DTD/svg11.dtd">
<svg version="1.1" id="Capa_1" xmlns="http://www.w3.org/2000/svg" xmlns:xlink="http://www.w3.org/1999/xlink" x="0px" y="0px"
	 width="19.502px" height="18.779px" viewBox="0 0 19.502 18.779" enable-background="new 0 0 19.502 18.779" xml:space="preserve">
<path d="M13.272,8.574V7.689h0.539V7.302l-0.539-0.21V6.627h-1.084L9.835,5.619v-1.73H9.619v0.234
	C9.576,4.158,9.52,4.189,9.448,4.198C9.285,4.214,9.122,4.223,9,4.398L9.044,4.81c0,0,0.163-0.184,0.29-0.2
	c0.102-0.015,0.181,0.015,0.285-0.044v1.06L7.31,6.627H6.247v0.462l-0.54,0.214v0.399h0.54v0.872H0v6.316h19.502V8.574H13.272z
	 M1.196,13.969H0.643v-1.721h0.553V13.969z M1.196,11.214H0.643V9.993h0.553V11.214z M2.692,13.969H2.139v-1.721h0.553V13.969z
	 M2.692,11.214H2.139V9.993h0.553V11.214z M4.19,13.969H3.636v-1.721H4.19V13.969z M4.19,11.214H3.636V9.993H4.19V11.214z
	 M5.687,13.969H5.134v-1.721h0.552L5.687,13.969L5.687,13.969z M5.687,11.214H5.134V9.993h0.552L5.687,11.214L5.687,11.214z
	 M9.483,9.993h0.552v1.221H9.483V9.993z M7.86,13.969H7.309v-1.721H7.86V13.969z M7.86,11.214H7.309V9.993H7.86V11.214z
	 M10.127,13.969H9.391v-1.457h0.736V13.969z M12.211,13.969h-0.552v-1.721h0.552V13.969z M12.211,11.214h-0.552V9.993h0.552V11.214z
	 M14.386,13.969h-0.552v-1.721h0.552V13.969z M14.386,11.214h-0.552V9.993h0.552V11.214z M15.883,13.969H15.33v-1.721h0.553V13.969z
	 M15.883,11.214H15.33V9.993h0.553V11.214z M17.379,13.969h-0.552v-1.721h0.552V13.969z M17.379,11.214h-0.552V9.993h0.552V11.214z
	 M18.877,13.969h-0.554v-1.721h0.554V13.969z M18.877,11.214h-0.554V9.993h0.554V11.214z"/>
</svg>
