<?xml version="1.0" encoding="utf-8"?>
<!-- Generator: Adobe Illustrator 16.0.4, SVG Export Plug-In . SVG Version: 6.00 Build 0)  -->
<!DOCTYPE svg PUBLIC "-//W3C//DTD SVG 1.1//EN" "http://www.w3.org/Graphics/SVG/1.1/DTD/svg11.dtd">
<svg version="1.1" id="Capa_1" xmlns="http://www.w3.org/2000/svg" xmlns:xlink="http://www.w3.org/1999/xlink" x="0px" y="0px"
	 width="19.936px" height="16.727px" viewBox="0 0 19.936 16.727" enable-background="new 0 0 19.936 16.727" xml:space="preserve">
<path d="M19.935,16.726v-4.611h-4.022v-0.843h-1.879v-0.526h-0.629v-1.98c0.132-0.037,0.229-0.155,0.229-0.3
	c0-0.171-0.141-0.31-0.311-0.31h-0.413v-1.26c0.069-0.048,0.115-0.127,0.115-0.219c0-0.146-0.117-0.264-0.265-0.264h-0.323
	c-0.033-0.352-0.143-1.081-0.48-1.569c-0.354-0.507-0.826-0.817-1.223-1.006C10.762,3.8,10.779,3.752,10.779,3.7
	c0-0.11-0.071-0.201-0.172-0.23V3.253h-0.174V2.196c0.052-0.026,0.09-0.082,0.09-0.146c0-0.09-0.075-0.164-0.164-0.164h-0.048
	c-0.049-0.084-0.14-0.146-0.245-0.17V0H9.868v1.716C9.762,1.74,9.674,1.802,9.623,1.885H9.575c-0.089,0-0.164,0.073-0.164,0.164
	c0,0.064,0.038,0.12,0.091,0.146v1.057H9.325v0.217C9.227,3.5,9.153,3.59,9.153,3.701c0,0.052,0.019,0.1,0.046,0.139
	c-0.398,0.188-0.868,0.498-1.22,1.005c-0.341,0.488-0.45,1.219-0.482,1.57H7.172c-0.146,0-0.262,0.118-0.262,0.265
	c0,0.091,0.044,0.169,0.113,0.218v1.259H6.61c-0.17,0-0.31,0.139-0.31,0.31c0,0.145,0.098,0.263,0.229,0.3v1.98H5.9v0.526H4.022
	v0.843H0v4.611H19.935z M18.182,12.878h0.698v0.986h-0.698V12.878z M18.182,14.438h0.698v0.986h-0.698V14.438z M16.682,12.878h0.7
	v0.986h-0.7V12.878z M16.682,14.438h0.7v0.986h-0.7V14.438z M14.546,12.395h0.661v2.374h-0.661V12.395z M11.421,14.769h-0.662
	v-2.374h0.662V14.769z M12.683,14.769h-0.661v-2.374h0.661V14.769z M13.284,12.395h0.659v2.374h-0.659V12.395z M12.595,9.049
	c0,0-0.016-0.235,0.202-0.235c0.219,0,0.219,0.235,0.219,0.235v1.682h-0.421V9.049z M12.118,6.934c0,0-0.013-0.17,0.166-0.17
	c0.178,0,0.178,0.17,0.178,0.17v1.218h-0.344V6.934z M11.852,8.813c0.218,0,0.218,0.235,0.218,0.235v1.682h-0.421V9.049
	C11.648,9.049,11.633,8.813,11.852,8.813z M11.344,6.934c0,0-0.012-0.17,0.163-0.17c0.181,0,0.181,0.17,0.181,0.17v1.218h-0.344
	V6.934z M11.121,9.049v1.682h-0.417V9.049c0,0-0.017-0.235,0.201-0.235C11.121,8.813,11.121,9.049,11.121,9.049z M10.569,6.934
	c0,0-0.013-0.17,0.166-0.17c0.178,0,0.178,0.17,0.178,0.17v1.218h-0.344V6.934z M9.795,6.934c0,0-0.013-0.17,0.166-0.17
	c0.178,0,0.178,0.17,0.178,0.17v1.218H9.795V6.934z M9.758,9.049c0,0-0.017-0.235,0.203-0.235c0.216,0,0.216,0.235,0.216,0.235
	v1.682H9.758V9.049z M9.615,13.517c0,0,0.075-0.243,0.354-0.243c0.278,0,0.35,0.243,0.35,0.243v1.251H9.615V13.517z M7.911,14.769
	H7.252v-2.374h0.659V14.769z M9.176,14.769H8.513v-2.374h0.662V14.769z M9.021,6.934c0,0-0.014-0.17,0.165-0.17
	c0.177,0,0.177,0.17,0.177,0.17v1.218H9.021V6.934z M8.812,9.049c0,0-0.016-0.235,0.201-0.235c0.218,0,0.218,0.235,0.218,0.235
	v1.682H8.812V9.049z M8.247,6.934c0,0-0.013-0.17,0.165-0.17c0.177,0,0.177,0.17,0.177,0.17v1.218H8.247V6.934z M7.865,9.049
	c0,0-0.015-0.235,0.203-0.235c0.216,0,0.216,0.235,0.216,0.235v1.682H7.865V9.049z M7.473,6.934c0,0-0.014-0.17,0.166-0.17
	c0.176,0,0.176,0.17,0.176,0.17v1.218H7.473V6.934z M6.919,9.049c0,0-0.015-0.235,0.203-0.235S7.34,9.049,7.34,9.049v1.682H6.919
	V9.049z M5.989,12.395H6.65v2.374H5.989V12.395z M4.728,12.395h0.661v2.374H4.728V12.395z M2.445,12.878h0.702v0.986H2.445V12.878z
	 M2.445,14.438h0.702v0.986H2.445V14.438z M0.947,12.878h0.702v0.986H0.947V12.878z M0.947,14.438h0.702v0.986H0.947V14.438z"/>
</svg>
